<?xml version="1.0" standalone="no"?>
<!DOCTYPE svg PUBLIC "-//W3C//DTD SVG 20010904//EN"
 "http://www.w3.org/TR/2001/REC-SVG-20010904/DTD/svg10.dtd">
<svg version="1.0" xmlns="http://www.w3.org/2000/svg"
 width="270.000000pt" height="270.000000pt" viewBox="0 0 270.000000 270.000000"
 preserveAspectRatio="xMidYMid meet">
<metadata>
Created by potrace 1.11, written by Peter Selinger 2001-2013
</metadata>
<g transform="translate(0.000000,270.000000) scale(0.100000,-0.100000)"
fill="#000000" stroke="none">
<path d="M0 1350 l0 -1350 1350 0 1350 0 0 1350 0 1350 -1350 0 -1350 0 0
-1350z m1497 902 c66 -34 112 -80 146 -146 28 -54 32 -70 31 -141 0 -67 -4
-89 -27 -133 -109 -211 -382 -242 -529 -61 -137 168 -65 409 147 496 48 20
181 11 232 -15z m-621 -629 c54 -29 118 -94 146 -151 33 -68 33 -197 -1 -266
-97 -197 -354 -241 -507 -88 -67 68 -89 123 -89 222 0 71 4 93 25 134 40 78
112 142 190 167 48 16 191 4 236 -18z m1224 12 c137 -48 226 -209 196 -353
-42 -206 -260 -316 -442 -224 -116 58 -177 156 -178 282 0 62 5 85 28 132 32
67 108 140 169 161 55 20 173 21 227 2z m-613 -615 c61 -27 137 -102 164 -163
35 -78 33 -182 -5 -260 -30 -61 -92 -123 -154 -153 -28 -15 -60 -19 -132 -19
-92 0 -98 2 -154 35 -109 65 -163 170 -154 299 8 103 56 182 147 240 83 53
196 61 288 21z"/>
</g>
</svg>
