<?xml version="1.0" encoding="UTF-8" standalone="no"?>
<svg class="image--svg--icon" viewBox="0 0 88 88" version="1.1" xmlns="http://www.w3.org/2000/svg" xmlns:xlink="http://www.w3.org/1999/xlink">
    <g stroke="none" stroke-width="1" fill="none" fill-rule="evenodd">
        <path d="M13.0643,74.9358 C-4.0209,57.8504 -4.0209,30.1498 13.0644,13.0643 C30.1498,-4.0208 57.8504,-4.0208 74.9358,13.0643 C92.021,30.1497 92.0209,57.8503 74.9357,74.9356 C57.8502,92.0209 30.1497,92.021 13.0643,74.9358 L13.0643,74.9358 L13.0643,74.9358 Z M15.2737,72.7261 C-0.5912,56.8612 -0.5911,31.1388 15.274,15.2738 C31.1388,-0.5912 56.8612,-0.5912 72.726,15.2738 C88.5911,31.1388 88.5911,56.8611 72.7261,72.726 C56.8612,88.591 31.1387,88.5912 15.2737,72.7261 L15.2737,72.7261 L15.2737,72.7261 Z M33.0528,61.75 L33.0624,36.7499 L25.2595,36.7499 L25.2499,61.75 L33.0528,61.75 L33.0528,61.75 L33.0528,61.75 Z M29.1333,32.0624 C31.5547,32.0624 33.0622,30.3252 33.0622,28.156 C33.0173,25.9382 31.5547,24.25 29.1791,24.25 C26.803,24.25 25.2499,25.9383 25.2499,28.156 C25.2499,30.3252 26.7572,32.0624 29.088,32.0624 L29.1333,32.0624 L29.1333,32.0624 L29.1333,32.0624 Z M37.75,61.75 L45.5626,61.75 L45.5626,47.6201 C45.5626,46.864 45.6149,46.1077 45.8267,45.5684 C46.4066,44.0568 48.447,42.4914 50.6629,42.4914 C53.5667,42.4914 54.9374,44.8129 54.9374,48.2134 L54.9375,61.7501 L62.7499,61.75 L62.7499,47.2419 C62.7499,39.47 58.7922,35.854 53.5132,35.854 C49.1849,35.8539 46.565,38.3902 45.5094,40.117 L45.5626,40.117 L45.5724,36.7499 L37.7598,36.7499 C37.865,39.1238 37.75,61.75 37.75,61.75 L37.75,61.75 L37.75,61.75 L37.75,61.75 Z" id="Shape" fill="#85BEC4"></path>
    </g>
</svg>
