<?xml version="1.0" encoding="UTF-8" standalone="no"?>
<svg class="image--svg--icon" viewBox="0 0 88 88" version="1.1" xmlns="http://www.w3.org/2000/svg" xmlns:xlink="http://www.w3.org/1999/xlink">
    <g stroke="none" stroke-width="1" fill="none" fill-rule="evenodd">
        <path d="M15.2737,72.7261 C-0.5912,56.8612 -0.5911,31.1388 15.274,15.2738 C31.1388,-0.5912 56.8612,-0.5912 72.726,15.2738 C88.5911,31.1388 88.5911,56.8611 72.7261,72.726 C56.8612,88.591 31.1387,88.5912 15.2737,72.7261 L15.2737,72.7261 L15.2737,72.7261 Z M13.0643,74.9358 C-4.0209,57.8504 -4.0209,30.1498 13.0644,13.0643 C30.1498,-4.0208 57.8504,-4.0208 74.9358,13.0643 C92.021,30.1497 92.0209,57.8503 74.9357,74.9356 C57.8502,92.0209 30.1497,92.021 13.0643,74.9358 L13.0643,74.9358 L13.0643,74.9358 Z M44.6402678,25.250475 C3.69616249,25.250475 80.418412,25.250475 44.6402678,25.250475 L44.6402678,25.250475 L44.6402678,25.250475 Z M44.4983118,63.2569117 C43.8238001,63.2523074 43.1559004,63.2192085 42.4960726,63.1585707 C40.8744108,62.9914258 39.3140604,62.6154365 37.8412119,62.0578813 C38.5083388,61.950853 38.7365822,61.4077188 38.7365822,60.911062 C38.7365822,60.3422132 38.7484323,58.753815 38.7365822,56.7543306 C32.1548765,58.2026016 30.7907399,53.6016852 30.7907399,53.6016852 C29.7155571,50.8346719 28.1651677,50.09946 28.1651677,50.09946 C26.016863,48.6146152 28.3262605,48.6421542 28.3262605,48.6421542 C30.7006619,48.8119054 31.9523942,51.1109302 31.9523942,51.1109302 C34.0633453,54.7663136 37.4898304,53.711146 38.8373081,53.1002503 C39.0532721,51.552509 39.6659571,50.4969939 40.3418428,49.8992162 C35.0874353,49.294228 29.5629655,47.2408819 29.5629655,38.0668486 C29.5629655,35.4518642 30.4846121,33.3156407 31.9981631,31.6432357 C31.7539478,31.0378131 30.9404978,28.6030916 32.2303566,25.3058014 C32.2303566,25.3058014 34.2168815,24.6626757 38.7365822,27.761807 C40.6240986,27.2306613 42.6496088,26.9659573 44.6612938,26.9565749 C46.6719483,26.9659573 48.6961704,27.2306613 50.5858336,27.761807 C55.1047614,24.6639788 57.0899983,25.3058014 57.0899983,25.3058014 C58.3786549,28.6030916 57.5667506,31.0378131 57.3239951,31.6432357 C58.8378037,33.3156407 59.7570459,35.4518642 59.7570459,38.0668486 C59.7570459,47.2654671 54.2237315,49.2883206 48.9503466,49.8788878 C49.799948,50.620007 50.5715791,52.0565501 50.5715791,54.2898115 L50.5715791,60.916535 C50.5715791,61.3389148 50.7376524,61.7910923 51.1956849,61.98317 C49.1168493,62.7970025 46.8590598,63.2473556 44.4983118,63.2569117 L44.4983118,63.2569117 L44.4983118,63.2569117 Z" id="Shape" fill="#85BEC4"></path>
    </g>
</svg>
