<?xml version="1.0" encoding="UTF-8" standalone="no"?>
<svg class="image--svg--icon" viewBox="0 0 88 88" version="1.1" xmlns="http://www.w3.org/2000/svg" xmlns:xlink="http://www.w3.org/1999/xlink">
    <g id="Page-1" stroke="none" stroke-width="1" fill="none" fill-rule="evenodd">
        <g id="Group">
            <path d="M15.2737,72.7261 C-0.5912,56.8612 -0.5911,31.1388 15.274,15.2738 C31.1388,-0.5912 56.8612,-0.5912 72.726,15.2738 C88.5911,31.1388 88.5911,56.8611 72.7261,72.726 C56.8612,88.591 31.1387,88.5912 15.2737,72.7261 L15.2737,72.7261 L15.2737,72.7261 L15.2737,72.7261 L15.2737,72.7261 Z M13.0643,74.9358 C-4.0209,57.8504 -4.0209,30.1498 13.0644,13.0643 C30.1498,-4.0208 57.8504,-4.0208 74.9358,13.0643 C92.021,30.1497 92.0209,57.8503 74.9357,74.9356 C57.8502,92.0209 30.1497,92.021 13.0643,74.9358 L13.0643,74.9358 L13.0643,74.9358 L13.0643,74.9358 L13.0643,74.9358 Z" id="Shape" fill="#85BEC4"></path>
            <rect id="path-1" stroke="#85BEC4" stroke-width="3" fill="#FBFBFB" x="16" y="27" width="56" height="34" rx="2"></rect>
            <path d="M16,28.6884901 L43.1001025,47.5631574 C43.5971022,47.9093075 44.3958168,47.9142393 44.8998975,47.5631574 L72,28.6884901" id="Line" stroke="#85BEC4" stroke-width="3"></path>
            <path d="M33.5,48.5 L16.5,60.5" id="Line" stroke="#85BEC4" stroke-width="2"></path>
            <path d="M71.5,48.5 L54.5,60.5" id="Line" stroke="#85BEC4" stroke-width="2" transform="translate(63.000000, 54.500000) scale(-1, 1) translate(-63.000000, -54.500000) "></path>
        </g>
    </g>
</svg>
