<?xml version="1.0" encoding="UTF-8" standalone="no"?>
<svg class="image--svg--icon" viewBox="0 0 88 88" version="1.1" xmlns="http://www.w3.org/2000/svg" xmlns:xlink="http://www.w3.org/1999/xlink">
    <g stroke="none" stroke-width="1" fill="none" fill-rule="evenodd">
        <path d="M13.0643,74.9358 C-4.0209,57.8504 -4.0209,30.1498 13.0644,13.0643 C30.1498,-4.0208 57.8504,-4.0208 74.9358,13.0643 C92.021,30.1497 92.0209,57.8503 74.9357,74.9356 C57.8502,92.0209 30.1497,92.021 13.0643,74.9358 L13.0643,74.9358 L13.0643,74.9358 Z M15.2737,72.7261 C-0.5912,56.8612 -0.5911,31.1388 15.274,15.2738 C31.1388,-0.5912 56.8612,-0.5912 72.726,15.2738 C88.5911,31.1388 88.5911,56.8611 72.7261,72.726 C56.8612,88.591 31.1387,88.5912 15.2737,72.7261 L15.2737,72.7261 L15.2737,72.7261 Z M65.2501437,30.3936645 C63.7060096,31.097468 62.0446122,31.5724569 60.3011194,31.7849196 C62.081012,30.6921426 63.4459472,28.9610817 64.0898311,26.8958149 C62.4248498,27.9092964 60.5814536,28.6444597 58.6181061,29.0413851 C57.0469802,27.3244361 54.8072185,26.250475 52.3288984,26.250475 C47.5709448,26.250475 43.7129055,30.2064017 43.7129055,35.0865464 C43.7129055,35.77803 43.7886171,36.4521537 43.9362321,37.0997336 C36.7747739,36.7306959 30.4250866,33.2135824 26.1749378,27.8676327 C25.4331665,29.1722003 25.0084652,30.6897906 25.0084652,32.3105322 C25.0084652,35.3756166 26.5294155,38.0805113 28.8416407,39.6648531 C27.4296658,39.6185974 26.1007943,39.220776 24.9385777,38.5589722 C24.9375697,38.595596 24.9375697,38.6333397 24.9375697,38.6709715 C24.9375697,42.9513601 27.9079027,46.5220093 31.8499415,47.3349001 C31.1268741,47.5360508 30.365727,47.6444661 29.579604,47.6444661 C29.0237516,47.6444661 28.484027,47.5892504 27.9580784,47.4852031 C29.0553353,50.9953726 32.236899,53.5508603 36.0069069,53.6215318 C33.0579657,55.9916607 29.3433975,57.4046436 25.3059353,57.4046436 C24.6112038,57.4046436 23.9248722,57.3626439 23.2504125,57.2804364 C27.0645481,59.7886604 31.5934631,61.250475 36.459048,61.250475 C52.3089625,61.250475 60.9751311,47.7868172 60.9751311,36.1101079 C60.9751311,35.7271823 60.9674031,35.3451528 60.9513872,34.9659232 C62.6342884,33.7231792 64.0955431,32.1658291 65.2501437,30.3936645 L65.2501437,30.3936645 L65.2501437,30.3936645 Z" id="Shape" fill="#85BEC4"></path>
    </g>
</svg>
