<?xml version="1.0" encoding="UTF-8" standalone="no"?>
<svg width="263px" height="288px" viewBox="0 0 263 288" version="1.1" xmlns="http://www.w3.org/2000/svg" xmlns:xlink="http://www.w3.org/1999/xlink">
    <g id="Page-1" stroke="none" stroke-width="1" fill="none" fill-rule="evenodd">
        <g id="bird-three" transform="translate(-1.000000, 0.000000)">
            <g id="Page-1">
                <g id="bird-three">
                    <path d="M143.481771,52.6776714 L82.3333333,148.998866 L19.1276042,0.18353075 L143.481771,52.6776714 L143.481771,52.6776714 L143.481771,52.6776714 Z" id="Triangle-17" fill="#ACADAD"></path>
                    <path d="M144.770833,58.8502394 L203.317708,207.145341 L86.3723958,152.21911 L144.770833,58.8502394 L144.770833,58.8502394 L144.770833,58.8502394 Z" id="Triangle-18" fill="#002B43"></path>
                    <path d="M247.138021,160.748335 L209.049479,206.073661 L187.083333,148.085856 L247.138021,160.748335 L247.138021,160.748335 L247.138021,160.748335 Z" id="Triangle-19" fill="#00CCFF"></path>
                    <path d="M250.109375,164.077828 L263.916667,182.34582 L235.82487,182.34582 L250.109375,164.077828 L250.109375,164.077828 L250.109375,164.077828 Z" id="Triangle-20" fill="#ACADAD"></path>
                    <path d="M84.46875,157.218552 L198.041667,210.841599 L76.828125,238.966711 L84.46875,157.218552 L84.46875,157.218552 L84.46875,157.218552 Z" id="Triangle-21" fill="#FF1C5E"></path>
                    <path d="M77.5234375,168.204579 L69.8554688,260.099888 L0.993489583,287.747687 L77.5234375,168.204579 L77.5234375,168.204579 L77.5234375,168.204579 Z" id="Triangle-22" fill="#002B43"></path>
                    <path d="M21.2304688,20.4596234 L45.3333333,74.9124424 L2.62109375,20.4596234 L21.2304688,20.4596234 L21.2304688,20.4596234 L21.2304688,20.4596234 Z" id="Triangle-23" fill="#00CCFF"></path>
                </g>
            </g>
        </g>
    </g>
</svg>