<?xml version="1.0" encoding="UTF-8"?>
<svg width="98px" height="98px" viewBox="0 0 98 98" version="1.1" xmlns="http://www.w3.org/2000/svg" xmlns:xlink="http://www.w3.org/1999/xlink">
    <!-- Generator: Sketch 41.2 (35397) - http://www.bohemiancoding.com/sketch -->
    <title>email</title>
    <desc>Created with Sketch.</desc>
    <defs></defs>
    <g id="Page-1" stroke="none" stroke-width="1" fill="none" fill-rule="evenodd">
        <g id="email" fill="#FDFDFD">
            <g id="Layer_1">
                <path d="M48.9986933,0 C21.9379533,0 0.000326666667,21.93828 0.000326666667,48.99902 C0.000326666667,76.0591067 21.9379533,97.99902 48.9986933,97.99902 C76.0594333,97.99902 97.9986933,76.0591067 97.9986933,48.99902 C97.9986933,21.93828 76.0594333,0 48.9986933,0 Z M48.9996733,17.21076 L77.9955867,35.29176 L20.00376,35.29176 L48.9996733,17.21076 Z M78.35688,64.1648467 L78.35394,64.1648467 C78.35394,67.0649933 76.0035733,69.4150333 73.1037533,69.4150333 L24.8955933,69.4150333 C21.9954467,69.4150333 19.6454067,67.0646667 19.6454067,64.1648467 L19.6454067,36.44228 C19.6454067,36.13554 19.6767667,35.8372933 19.7277267,35.5442733 L47.4316733,52.8193867 C47.4656467,52.84062 47.5019067,52.8549933 47.53686,52.8745933 C47.5734467,52.8948467 47.6106867,52.9144467 47.6479267,52.9330667 C47.8436,53.0340067 48.0451533,53.1153467 48.25128,53.1685933 C48.2725133,53.1744733 48.2937467,53.1770867 48.31498,53.1819867 C48.5410333,53.2352333 48.7700267,53.2685533 48.9986933,53.2685533 L49.0003267,53.2685533 L49.0035933,53.2685533 C49.23226,53.2685533 49.4612533,53.2362133 49.6873067,53.1819867 C49.70854,53.17676 49.7297733,53.1744733 49.7510067,53.1685933 C49.9568067,53.1153467 50.1577067,53.0340067 50.35436,52.9330667 C50.3916,52.9144467 50.42884,52.8948467 50.4654267,52.8745933 C50.5000533,52.8549933 50.53664,52.84062 50.5706133,52.8193867 L78.27456,35.5442733 C78.32552,35.8372933 78.35688,36.1348867 78.35688,36.44228 L78.35688,64.1648467 Z" id="Shape"></path>
            </g>
        </g>
    </g>
</svg>
