<?xml version="1.0" encoding="UTF-8"?>
<svg width="124px" height="121px" viewBox="0 0 124 121" version="1.1" xmlns="http://www.w3.org/2000/svg" xmlns:xlink="http://www.w3.org/1999/xlink">
    <!-- Generator: Sketch 41.2 (35397) - http://www.bohemiancoding.com/sketch -->
    <title>github</title>
    <desc>Created with Sketch.</desc>
    <defs></defs>
    <g id="Page-1" stroke="none" stroke-width="1" fill="none" fill-rule="evenodd">
        <g id="github" fill="#272727">
            <path d="M62,0 C27.7607422,0 0,27.7607422 0,62 C0,89.3974609 17.763,112.632324 42.4017031,120.828797 C45.5009766,121.396484 46.6324766,119.481629 46.6324766,117.846863 C46.6324766,116.370973 46.5756836,111.481934 46.5454102,106.305176 C29.3046875,110.051453 25.6604922,98.9941406 25.6604922,98.9941406 C22.8375547,91.8344727 18.7770391,89.9272461 18.7770391,89.9272461 C13.1424258,86.0825195 19.2045,86.1582031 19.2045,86.1582031 C25.4294453,86.5895391 28.7067266,92.5458984 28.7067266,92.5458984 C34.2392578,102.021484 43.2228398,99.2817383 46.7496953,97.6923828 C47.3132656,93.6962891 48.9177578,90.956543 50.6852422,89.4125977 C36.9222109,87.8460078 22.444,82.5253906 22.444,58.76825 C22.444,51.9945078 24.8621211,46.4697266 28.8203125,42.1292422 C28.1883242,40.5550234 26.0540469,34.2467656 29.4332891,25.7135312 C29.4332891,25.7135312 34.6328125,24.0484922 46.4847422,32.0709531 C51.4268203,30.6897578 56.7285469,30.0086055 61.9998789,29.9858398 C67.267457,30.0086055 72.5728164,30.6972656 77.5226445,32.0784609 C89.3520508,24.0484922 94.559082,25.7210391 94.559082,25.7210391 C97.949707,34.2619023 95.8154297,40.5625313 95.1796875,42.1292422 C99.1530156,46.4697266 101.552246,51.9946289 101.552246,58.76825 C101.552246,82.5859375 87.0512695,87.83075 73.2390742,89.3671875 C75.4718008,91.2895508 77.447082,95.0585938 77.447082,100.84082 C77.447082,109.128234 77.3637695,115.811035 77.3637695,117.854492 C77.3637695,119.504395 78.4913945,121.434266 81.6323242,120.828797 C106.252258,112.617188 124,89.3823242 124,62 C124,27.7607422 96.2392578,0 62,0 Z" id="Shape"></path>
        </g>
    </g>
</svg>