<?xml version="1.0" encoding="UTF-8"?>
<svg width="98px" height="98px" viewBox="0 0 98 98" version="1.1" xmlns="http://www.w3.org/2000/svg" xmlns:xlink="http://www.w3.org/1999/xlink">
    <!-- Generator: Sketch 41.2 (35397) - http://www.bohemiancoding.com/sketch -->
    <title>Group</title>
    <desc>Created with Sketch.</desc>
    <defs></defs>
    <g id="Page-1" stroke="none" stroke-width="1" fill="none" fill-rule="evenodd">
        <g id="Group" fill="#272727">
            <path d="M48.875,0 C21.882,0 0,21.882 0,48.875 C0,75.868 21.882,97.75 48.875,97.75 C75.868,97.75 97.75,75.868 97.75,48.875 C97.75,21.882 75.868,0 48.875,0 Z M35.0480332,71.966 L24.1077863,71.966 L24.1077863,36.766114 L35.0480332,36.766114 L35.0480332,71.966 L35.0480332,71.966 Z M29.5802985,31.9544756 C26.0736866,31.9544756 23.2351145,29.1119224 23.2351145,25.6100879 C23.2359108,22.1114384 26.0736866,19.2688851 29.5802985,19.2688851 C33.0773555,19.2688851 35.9199088,22.1114384 35.9199088,25.6100879 C35.9199088,29.1127186 33.0765593,31.9544756 29.5802985,31.9544756 Z M76.023,71.966 L65.0915117,71.966 L65.0915117,54.8477782 C65.0915117,50.7654896 65.0158695,45.5151266 59.4048128,45.5151266 C53.7149289,45.5151266 52.8398684,49.9612939 52.8398684,54.5523756 L52.8398684,71.9652038 L41.9091764,71.9652038 L41.9091764,36.766114 L52.4019401,36.766114 L52.4019401,41.57616 L52.5492432,41.57616 C54.0103315,38.8084527 57.5774571,35.8910535 62.9002774,35.8910535 C73.9782726,35.8910535 76.023,43.1813665 76.023,52.6589326 L76.023,71.966 Z" id="Shape"></path>
        </g>
    </g>
</svg>