<?xml version="1.0" encoding="UTF-8" standalone="no"?>
<svg width="31px" height="31px" viewBox="0 0 31 31" version="1.1" xmlns="http://www.w3.org/2000/svg" xmlns:xlink="http://www.w3.org/1999/xlink">
    <!-- Generator: Sketch 3.6.1 (26313) - http://www.bohemiancoding.com/sketch -->
    <title>svg-fresh</title>
    <desc>Created with Sketch.</desc>
    <defs></defs>
    <g id="Page-1" stroke="none" stroke-width="1" fill="none" fill-rule="evenodd">
        <g id="svg-fresh">
            <g id="Group" transform="translate(3.000000, 5.000000)">
                <path d="M9.15188803,0 L4.59177195,0 L4.59177195,0.0541991571 C4.40348447,0.105918118 4.22811055,0.212982488 4.09319421,0.373769531 L0.232650567,4.97458628 C-0.117021927,5.39130973 -0.068421151,6.02348752 0.350751905,6.37521548 L3.42905865,8.95822153 C3.76131261,9.23701571 4.23487843,9.25818499 4.59177195,9.03692837 L4.59177195,22 L19.5917719,22 L19.5917719,9.00175585 C19.952505,9.24938613 20.4486817,9.23718233 20.793052,8.94822131 L23.8713588,6.36521525 C24.2905318,6.0134873 24.3391326,5.3813095 23.9894601,4.96458605 L20.1289165,0.363769302 C19.9848292,0.19205279 19.7945972,0.0816107566 19.5917719,0.0344198604 L19.5917719,0 L15.0316559,0 C14.4080828,0.962876528 13.3243315,1.5999999 12.0917719,1.5999999 C10.8592124,1.5999999 9.77546105,0.962876528 9.15188803,5.58941782e-13 Z" id="Combined-Shape" stroke="#002A44" stroke-width="0.5" fill="#FBFBFB"></path>
                <path d="M7,8.00315505 L9.13333333,5 L10,5 L7.86666667,7.99374624 L10,11 L9.13333333,11 L7,8.00315505 Z" id="Rectangle-18" fill="#FF115B"></path>
                <path d="M14,8.00315505 L16.1333333,5 L17,5 L14.8666667,7.99374624 L17,11 L16.1333333,11 L14,8.00315505 Z" id="Rectangle-18" fill="#FF115B" transform="translate(15.500000, 8.000000) scale(-1, 1) translate(-15.500000, -8.000000) "></path>
            </g>
        </g>
    </g>
</svg>