<?xml version="1.0" encoding="UTF-8" standalone="no"?>
<svg width="31px" height="31px" viewBox="0 0 31 31" version="1.1" xmlns="http://www.w3.org/2000/svg" xmlns:xlink="http://www.w3.org/1999/xlink">
    <!-- Generator: Sketch 3.7.1 (28215) - http://www.bohemiancoding.com/sketch -->
    <title>svg-twitter</title>
    <desc>Created with Sketch.</desc>
    <defs></defs>
    <g id="Page-1" stroke="none" stroke-width="1" fill="none" fill-rule="evenodd">
        <g id="svg-twitter" stroke="#002A44" stroke-width="0.5">
            <path d="M17.51405,9.83678333 C16.2482,10.2974 15.4482833,11.4854333 15.53915,12.7856 L15.5696,13.2873 L15.0630667,13.2259167 C13.2201167,12.9905333 11.60965,12.1920667 10.2423,10.8503333 L9.57385,10.1847833 L9.40178333,10.6763333 C9.03735,11.77205 9.27031667,12.92915 10.0296333,13.7073167 C10.4346667,14.1374833 10.3433167,14.1988667 9.6449,13.9427 C9.40178333,13.8610167 9.18911667,13.7996333 9.16881667,13.8300833 C9.09825,13.9021 9.34088333,14.8334833 9.53325,15.2022667 C9.79666667,15.7146 10.3331667,16.2158167 10.9209,16.5130667 L11.4172833,16.74845 L10.8300333,16.7586 C10.2630833,16.7586 10.2427833,16.76875 10.3036833,16.9843167 C10.5062,17.6498667 11.3061167,18.3565 12.1973833,18.6639 L12.8252333,18.8785 L12.2785833,19.2062 C11.4685167,19.6779333 10.51635,19.9437667 9.56418333,19.9635833 C9.10791667,19.9737333 8.73333333,20.0148167 8.73333333,20.04575 C8.73333333,20.1477333 9.96921667,20.7209667 10.6879333,20.9466833 C12.84505,21.6122333 15.4076833,21.3251333 17.3318333,20.1888167 C18.6991833,19.3797167 20.06605,17.77215 20.7045333,16.2153333 C21.04915,15.3864167 21.3932833,13.8706833 21.3932833,13.1442333 C21.3932833,12.6729833 21.4237333,12.6116 21.9906833,12.0485167 C22.32515,11.7208167 22.6388333,11.3626667 22.6997333,11.2602 C22.8012333,11.0654167 22.7906,11.0654167 22.2744,11.2394167 C21.4135833,11.5468167 21.2917833,11.5057333 21.7176,11.0451167 C22.0312833,10.7174167 22.40635,10.1234 22.40635,9.9494 C22.40635,9.91895 22.2545833,9.9697 22.0820333,10.0620167 C21.8998167,10.1644833 21.4947833,10.3181833 21.1907667,10.4100167 L20.6441167,10.5845 L20.1477333,10.2461667 C19.8741667,10.0620167 19.4899167,9.85708333 19.2869167,9.7957 C18.7702333,9.65263333 17.9799833,9.67293333 17.51405,9.83678333 L17.51405,9.83678333 Z M15.5,30 C7.49213333,30 1,23.5078667 1,15.5 C1,7.49165 7.49213333,1 15.5,1 C23.5078667,1 30,7.49165 30,15.5 C30,23.5078667 23.5078667,30 15.5,30 L15.5,30 Z" id="Shape"></path>
        </g>
    </g>
</svg>