<?xml version="1.0" encoding="UTF-8" standalone="no"?>
<svg width="31px" height="31px" viewBox="0 0 31 31" version="1.1" xmlns="http://www.w3.org/2000/svg" xmlns:xlink="http://www.w3.org/1999/xlink">
    <!-- Generator: Sketch 3.6.1 (26313) - http://www.bohemiancoding.com/sketch -->
    <title>svg-vision-quest</title>
    <desc>Created with Sketch.</desc>
    <defs></defs>
    <g id="Page-1" stroke="none" stroke-width="1" fill="none" fill-rule="evenodd">
        <g id="svg-vision-quest" stroke-width="0.5">
            <g id="Group" transform="translate(2.000000, 5.000000)">
                <path d="M0.5,17.5073094 C0.5,17.5073094 3.80078125,16.25 9.17382812,16.25 C12.3154699,16.25 15.7414897,17.2927495 18.7113927,17.536835 C23.1047609,17.8979099 26.5,17.5073094 26.5,17.5073094" id="Line" stroke="#002A44" stroke-linecap="square"></path>
                <circle id="Oval-2" stroke="#FF115B" fill="#FBFBFB" cx="7.5" cy="3.5" r="3.5"></circle>
                <path d="M13.5,16.5 C13.5,16.5 15.1684416,15.5 18.4638142,15.5 C21.7591868,15.5 24.5,16.5 24.5,16.5" id="Line" stroke="#002A44" stroke-linecap="square" transform="translate(19.000000, 16.000000) scale(-1, 1) translate(-19.000000, -16.000000) "></path>
                <path d="M2.5,21.25 C2.5,21.25 5.65963542,21.9331055 12.1400391,20.25 C18.6204427,18.5668945 24.5,21.25 24.5,21.25" id="Line" stroke="#002A44" stroke-linecap="square"></path>
            </g>
        </g>
    </g>
</svg>