<?xml version="1.0" encoding="UTF-8" standalone="no"?>
<svg width="31px" height="31px" viewBox="0 0 31 31" version="1.1" xmlns="http://www.w3.org/2000/svg" xmlns:xlink="http://www.w3.org/1999/xlink">
    <!-- Generator: Sketch 3.6.1 (26313) - http://www.bohemiancoding.com/sketch -->
    <title>svg-facebooked</title>
    <desc>Created with Sketch.</desc>
    <defs></defs>
    <g id="Page-1" stroke="none" stroke-width="1" fill="none" fill-rule="evenodd">
        <g id="svg-facebooked" stroke="#002A44">
            <g id="Group" transform="translate(4.000000, 7.000000)" stroke-width="0.5" fill="#FBFBFB">
                <rect id="Rectangle-44" x="0.625" y="0.235294118" width="7.5" height="14.8235294" rx="0.5"></rect>
                <path d="M9.39029012,2.80480849 C9.39029012,2.80480849 10.9882094,1.88173483 11.787169,0.920197994 C12.0420392,0.613465323 13.5517795,-1.8395891e-08 13.5517795,-1.8395891e-08 L21.5878906,-1.8395891e-08 C22.0385416,-1.8395891e-08 22.9398435,1.2352941 22.9398435,1.2352941 L22.9398435,10.1532577 C22.9398435,10.1532577 21.9912159,12.6238459 21.516902,12.6238459 C19.641867,12.6238459 16.8917969,12.6238459 16.8917969,12.6238459 L16.8917969,14.7438234 L17.6302716,16.5906221 L17.6302716,18.891876 L15.1515643,18.8918764 C15.1515643,18.8918764 13.8997414,15.0805585 12.5517795,13.8115795 C10.7386456,12.1046849 7.89766581,12.6684323 7.89766581,12.6684323 L7.89766581,2.88610934 L9.39029012,2.80480849 Z" id="Polygon-1"></path>
            </g>
            <g id="Group-3" transform="translate(4.000000, 7.000000)" stroke-width="0.25" stroke-linecap="square">
                <path d="M1,0.5 L2.94145069,3.41217603" id="Line"></path>
                <path d="M2,0.5 L3.94145069,3.41217603" id="Line"></path>
                <path d="M3,0.5 L4.94145069,3.41217603" id="Line"></path>
                <path d="M4,0.5 L5.94145069,3.41217603" id="Line"></path>
                <path d="M5,0.5 L6.94145069,3.41217603" id="Line"></path>
                <path d="M6,0.5 L7.94145069,3.41217603" id="Line"></path>
                <path d="M1,2 L1.99846035,3.49769053" id="Line"></path>
                <path d="M7,0.5 L7.94299033,1.9144855" id="Line"></path>
            </g>
            <g id="Group-2" transform="translate(15.000000, 6.600000)" stroke-width="0.25" stroke-linecap="square">
                <path d="M2,0.5 L3.10940039,2.16410059" id="Line"></path>
                <path d="M1.2,1.0000001 L2.03,2.2500001" id="Line"></path>
                <path d="M1.2,1.0000001 L2.03,2.2500001" id="Line"></path>
                <path d="M3,0.5 L4.10940039,2.16410059" id="Line"></path>
                <path d="M4,0.5 L5.10940039,2.16410059" id="Line"></path>
                <path d="M5,0.5 L6.10940039,2.16410059" id="Line"></path>
                <path d="M6,0.5 L7.10940039,2.16410059" id="Line"></path>
                <path d="M7,0.5 L8.10940039,2.16410059" id="Line"></path>
                <path d="M8,0.5 L8.94299033,1.9144855" id="Line"></path>
                <path d="M9,0.5 L9.94299033,1.9144855" id="Line"></path>
                <path d="M10,0.5 L10.9429903,1.9144855" id="Line"></path>
            </g>
        </g>
    </g>
</svg>