<?xml version="1.0" encoding="UTF-8" standalone="no"?>
<svg width="31px" height="31px" viewBox="0 0 31 31" version="1.1" xmlns="http://www.w3.org/2000/svg" xmlns:xlink="http://www.w3.org/1999/xlink">
    <!-- Generator: Sketch 3.6.1 (26313) - http://www.bohemiancoding.com/sketch -->
    <title>svg-open-source</title>
    <desc>Created with Sketch.</desc>
    <defs></defs>
    <g id="Page-1" stroke="none" stroke-width="1" fill="none" fill-rule="evenodd">
        <g id="svg-open-source" stroke-width="0.5">
            <g id="Group" transform="translate(2.000000, 7.000000)" stroke="#002A44" fill="#FBFBFB">
                <rect id="Rectangle-4" x="3" y="0" width="20.5671387" height="12.505127" rx="1"></rect>
                <rect id="Rectangle-4" x="4.34133513" y="0.961932843" width="17.8844684" height="10.4562099" rx="0.5"></rect>
                <path d="M3.61808494,12 L23.3810697,12 C23.6081697,12 23.9797016,12.2150574 24.2197419,12.4904785 L26.8509561,15.5095215 C27.0870419,15.7804053 27.0401894,16 26.7279518,16 L0.271202848,16 C-0.032816378,16 -0.091841731,15.7849426 0.148198584,15.5095215 L2.7794128,12.4904785 C3.01549865,12.2195947 3.38484589,12 3.61808494,12 Z" id="Rectangle-4"></path>
            </g>
            <path d="M11.991266,16.5 C11.541372,16.8859987 10.9517463,17.1199999 10.3062374,17.1199999 C8.89446645,17.1199999 7.75,16.0007118 7.75,14.6199999 C7.75,13.239288 8.89446645,12.1199999 10.3062374,12.1199999 C10.7595148,12.1199999 11.1852369,12.2353828 11.5543714,12.4377553 C11.6748269,11.0734206 12.94517,10 14.494534,10 C15.5874406,10 16.5415132,10.5341081 17.0510904,11.327676 C17.3322325,11.1586589 17.6702761,11.0600965 18.0339396,11.0600965 C18.8062929,11.0600965 19.4630853,11.5046702 19.7046515,12.1245568 C19.7616004,12.1215331 19.8189956,12.1199999 19.8767893,12.1199999 C21.4636197,12.1199999 22.75,13.2758611 22.75,14.7016881 C22.75,16.1275152 21.4636197,17.2833764 19.8767893,17.2833764 C19.0680787,17.2833764 18.3374046,16.9831624 17.815274,16.5 L11.991266,16.5 Z" id="Combined-Shape" stroke="#00CBFF" fill="#FBFBFB"></path>
            <path d="M14.5,14.25 L18.5,14.25" id="Line" stroke="#FF115B" stroke-linecap="square"></path>
            <path d="M13.5,13.25 L17.5,13.25" id="Line" stroke="#FF115B" stroke-linecap="square"></path>
            <path d="M13.5,15.25 L17.5,15.25" id="Line" stroke="#FF115B" stroke-linecap="square"></path>
        </g>
    </g>
</svg>