<?xml version="1.0" encoding="UTF-8" standalone="no"?>
<svg width="31px" height="31px" viewBox="0 0 31 31" version="1.1" xmlns="http://www.w3.org/2000/svg" xmlns:xlink="http://www.w3.org/1999/xlink">
    <!-- Generator: Sketch 3.6.1 (26313) - http://www.bohemiancoding.com/sketch -->
    <title>svg-mic</title>
    <desc>Created with Sketch.</desc>
    <defs></defs>
    <g id="Page-1" stroke="none" stroke-width="1" fill="none" fill-rule="evenodd">
        <g id="svg-mic" stroke-width="0.5">
            <circle id="Oval-3" stroke="#002A44" cx="21.25" cy="8" r="4.5"></circle>
            <path d="M14.5,11.5 L18,15" id="Line" stroke="#FF115B" stroke-linecap="square"></path>
            <path d="M13,14 L16,17" id="Line" stroke="#FF115B" stroke-linecap="square"></path>
            <path d="M11,19 L12,20" id="Line" stroke="#00CBFF" stroke-linecap="square"></path>
            <path d="M11,21 L11,21" id="Line" stroke="#00CBFF" stroke-linecap="square"></path>
            <path d="M11,20 L11.7071068,20.7071068" id="Line" stroke="#00CBFF" stroke-linecap="square"></path>
            <polygon id="Triangle-1" stroke="#002A44" points="6.5 22.1551749 15.6142855 10 19.7299995 13.7890321 8.22282499 23.9200001 "></polygon>
            <path d="M7.25,23.25 C7.25,23.25 7.2938251,23.7151139 5.80462739,24.9177376 C4.31542969,26.1203613 4,27 4,27" id="Line" stroke="#002A44" stroke-linecap="square"></path>
            <path d="M18.5,5.76538481 C18.5,5.76538481 19.9349365,4.55413818 21.4386597,4.74273682 C22.9423828,4.93133545 23.5,5.76538481 23.5,5.76538481" id="Line" stroke="#002A44" stroke-linecap="square"></path>
        </g>
    </g>
</svg>