<?xml version="1.0" encoding="UTF-8" standalone="no"?>
<svg width="31px" height="31px" viewBox="0 0 31 31" version="1.1" xmlns="http://www.w3.org/2000/svg" xmlns:xlink="http://www.w3.org/1999/xlink">
    <!-- Generator: Sketch 3.7.1 (28215) - http://www.bohemiancoding.com/sketch -->
    <title>svg-mail</title>
    <desc>Created with Sketch.</desc>
    <defs></defs>
    <g id="Page-1" stroke="none" stroke-width="1" fill="none" fill-rule="evenodd">
        <g id="svg-mail" stroke="#002A44" stroke-width="0.5">
            <path d="M15.5,30 C23.5081293,30 30,23.5081293 30,15.5 C30,7.49187074 23.5081293,1 15.5,1 C7.49187074,1 1,7.49187074 1,15.5 C1,23.5081293 7.49187074,30 15.5,30 L15.5,30 Z" id="Shape" fill="#002A44"></path>
            <path d="M15.5,17.1730769 L23.8653846,9.92307694 L7.13461539,9.92307694 L15.5,17.1730769 L15.5,17.1730769 Z M13.240502,16.3705092 L15.5,18.2251493 L17.7240976,16.3705092 L23.8653846,21.6346154 L7.13461539,21.6346154 L13.240502,16.3705092 L13.240502,16.3705092 Z M6.57692306,21.0769231 L6.57692306,10.4807692 L12.7115384,15.7788462 L6.57692306,21.0769231 L6.57692306,21.0769231 Z M24.4230769,21.0769231 L24.4230769,10.4807692 L18.2884616,15.7788462 L24.4230769,21.0769231 L24.4230769,21.0769231 Z" id="Shape" fill="#FBFBFB"></path>
        </g>
    </g>
</svg>