<?xml version="1.0" encoding="UTF-8" standalone="no"?>
<svg width="31px" height="31px" viewBox="0 0 31 31" version="1.1" xmlns="http://www.w3.org/2000/svg" xmlns:xlink="http://www.w3.org/1999/xlink">
    <!-- Generator: Sketch 3.7.1 (28215) - http://www.bohemiancoding.com/sketch -->
    <title>svg-github</title>
    <desc>Created with Sketch.</desc>
    <defs></defs>
    <g id="Page-1" stroke="none" stroke-width="1" fill="none" fill-rule="evenodd">
        <g id="svg-github" stroke="#002A44" stroke-width="0.5" fill="#002A44">
            <path d="M9.47911667,15.7745333 C9.45301667,15.7745333 9.76525,16.43525 9.77395,16.43525 C10.45545,17.6513167 11.76915,18.40725 13.9852333,18.6170167 C13.6691333,18.8528833 13.2892333,19.30045 13.23655,19.8176167 C12.8387667,20.0704 12.03885,20.1540167 11.4172833,19.9611667 C10.5458333,19.6909833 10.2123333,17.9959333 8.90781667,18.2376 C8.62555,18.2893167 8.68161667,18.4725 8.9257,18.6286167 C9.32348333,18.8814 9.69758333,19.1979833 9.98613333,19.8712667 C10.2079833,20.3884333 10.6739167,21.3120833 12.1480833,21.3120833 C12.7329167,21.3120833 13.1427833,21.2429667 13.1427833,21.2429667 C13.1427833,21.2429667 13.1539,22.56295 13.1539,23.07625 C13.1539,23.6683333 12.3409333,23.8350833 12.3409333,24.1197667 C12.3409333,24.2323833 12.61015,24.2430167 12.8262,24.2430167 C13.2534667,24.2430167 14.1423167,23.8926 14.1423167,23.2773167 C14.1423167,22.7886667 14.1505333,21.1458167 14.1505333,20.85775 C14.1505333,20.2294167 14.4932167,20.0302833 14.4932167,20.0302833 C14.4932167,20.0302833 14.53575,23.3846167 14.4115333,23.8350833 C14.2655667,24.36385 14.00215,24.2889333 14.00215,24.5248 C14.00215,24.8757 15.07225,24.6113167 15.4270167,23.8404 C15.7010667,23.24155 15.5812,19.9495667 15.5812,19.9495667 L15.8736167,19.9437667 C15.8736167,19.9437667 15.89005,21.4503167 15.8799,22.1390667 C15.86975,22.8524667 15.8209333,23.7543667 16.2520667,24.1797 C16.5353,24.45955 17.4526667,24.9501333 17.4526667,24.5016 C17.4526667,24.2410833 16.95,24.0269667 16.95,23.3217833 L16.95,20.0762 C17.35165,20.0762 17.2912333,21.1434 17.2912333,21.1434 L17.3207167,23.1265167 C17.3207167,23.1265167 17.2317833,23.8486167 18.1158,24.1507 C18.42755,24.2584833 19.09455,24.2874833 19.1259667,24.1072 C19.1573833,23.9269167 18.3226667,23.6586667 18.3149333,23.0999333 C18.3101,22.7582167 18.3304,22.5590833 18.3304,21.0762167 C18.3304,19.59335 18.1278833,19.04525 17.4217333,18.6083167 C19.6006,18.3884 20.9495833,17.8586667 21.6064333,16.4400833 C21.6576667,16.4415333 21.8746833,15.7774333 21.8461667,15.7774333 C21.9935833,15.2419 22.0733333,14.60825 22.0888,13.8581167 C22.0849333,11.8232833 21.0941,11.1036 20.90415,10.76575 C21.1844833,9.22536667 20.8567833,8.52453333 20.7050167,8.28383333 C20.1433833,8.0876 18.7518667,8.78891667 17.9911,9.28288333 C16.7518333,8.92666667 14.1312,8.96098333 13.1485833,9.37471667 C11.3356,8.0992 10.3761833,8.29446667 10.3761833,8.29446667 C10.3761833,8.29446667 9.75606667,9.38631667 10.2123333,10.9842167 C9.6159,11.73145 9.17123333,12.2602167 9.17123333,13.6614 C9.17123333,14.4511667 9.26596667,15.1578 9.47911667,15.7745333 L9.47911667,15.7745333 Z M15.5,30 C7.49213333,30 1,23.5078667 1,15.5 C1,7.49165 7.49213333,1 15.5,1 C23.5078667,1 30,7.49165 30,15.5 C30,23.5078667 23.5078667,30 15.5,30 L15.5,30 Z" id="Shape"></path>
        </g>
    </g>
</svg>