<?xml version="1.0" encoding="UTF-8" standalone="no"?>
<svg width="31px" height="31px" viewBox="0 0 31 31" version="1.1" xmlns="http://www.w3.org/2000/svg" xmlns:xlink="http://www.w3.org/1999/xlink">
    <!-- Generator: Sketch 3.6.1 (26313) - http://www.bohemiancoding.com/sketch -->
    <title>svg-recruitment</title>
    <desc>Created with Sketch.</desc>
    <defs></defs>
    <g id="Page-1" stroke="none" stroke-width="1" fill="none" fill-rule="evenodd">
        <g id="svg-recruitment">
            <rect id="Rectangle-45" stroke="#002A44" stroke-width="0.5" fill="#FBFBFB" x="5" y="3" width="21" height="25" rx="1"></rect>
            <path d="M9.63060244,9.33333333 C10.551077,9.33333333 11.2972691,8.58714125 11.2972691,7.66666667 C11.2972691,6.74619208 10.551077,6 9.63060244,6 C8.71012785,6 7.96393577,6.74619208 7.96393577,7.66666667 C7.96393577,8.58714125 8.71012785,9.33333333 9.63060244,9.33333333 Z M7.7232538,10.2960612 C7.85617878,9.76436128 8.41348393,9.33333333 8.96404568,9.33333333 L10.2971592,9.33333333 C10.8495046,9.33333333 11.4073555,9.7736791 11.5379511,10.2960612 L11.8416588,11.5108922 C11.9091905,11.781019 11.7388527,12 11.4645207,12 L7.79668418,12 C7.52086485,12 7.34958132,11.7907511 7.41954604,11.5108922 L7.7232538,10.2960612 Z" id="Combined-Shape" stroke="#FF115B" stroke-width="0.25" fill="#FBFBFB"></path>
            <g id="Group" transform="translate(14.000000, 6.000000)" stroke="#ACADAD" stroke-linecap="square">
                <path d="M0.5,1.5 L7.5,1.5" id="Line"></path>
                <path d="M0.25,5.75 L3.5,5.75" id="Line" stroke-width="0.5"></path>
                <path d="M0.25,3.25 L5.5,3.25" id="Line" stroke-width="0.5"></path>
            </g>
            <path d="M7.75,14.25 L19.5,14.25" id="Line" stroke="#ACADAD" stroke-width="0.5" stroke-linecap="square"></path>
            <path d="M7.75,16.25 L15.5,16.25" id="Line" stroke="#ACADAD" stroke-width="0.5" stroke-linecap="square"></path>
            <path d="M7.75,20.25 L15.5,20.25" id="Line" stroke="#ACADAD" stroke-width="0.5" stroke-linecap="square"></path>
            <path d="M7.75,22.25 L14.5,22.25" id="Line" stroke="#ACADAD" stroke-width="0.5" stroke-linecap="square"></path>
            <path d="M7.75,24.25 L14.5,24.25" id="Line" stroke="#ACADAD" stroke-width="0.5" stroke-linecap="square"></path>
            <path d="M7.75,18.25 L16.5,18.25" id="Line" stroke="#ACADAD" stroke-width="0.5" stroke-linecap="square"></path>
            <circle id="Oval-32" stroke="#00CBFF" stroke-width="0.5" fill="#FBFBFB" cx="22.5" cy="23.5" r="5.5"></circle>
            <path d="M20.4697549,26.8684244 L24.869755,22.4710855 L23.405243,20.5315757" id="Line" stroke="#00CBFF" stroke-linecap="square" transform="translate(22.669755, 23.700000) scale(1, -1) rotate(-90.000000) translate(-22.669755, -23.700000) "></path>
        </g>
    </g>
</svg>