<?xml version="1.0" encoding="UTF-8" standalone="no"?>
<svg width="31px" height="31px" viewBox="0 0 31 31" version="1.1" xmlns="http://www.w3.org/2000/svg" xmlns:xlink="http://www.w3.org/1999/xlink">
    <!-- Generator: Sketch 3.6.1 (26313) - http://www.bohemiancoding.com/sketch -->
    <title>svg-birthday</title>
    <desc>Created with Sketch.</desc>
    <defs></defs>
    <g id="Page-1" stroke="none" stroke-width="1" fill="none" fill-rule="evenodd">
        <g id="svg-birthday">
            <g id="magenta" transform="translate(2.000000, 6.000000)" stroke="#FF115B">
                <ellipse id="Oval-28" stroke-width="0.5" fill="#FBFBFB" cx="7" cy="6.3" rx="6" ry="6.3"></ellipse>
                <g id="Group-4" transform="translate(2.428571, 9.720000) scale(-1, 1) translate(-2.428571, -9.720000) translate(0.428571, 6.720000)" stroke-width="0.25" stroke-linecap="square">
                    <path d="M0.857142857,3.36 L1.54285714,3.864" id="Line"></path>
                    <path d="M1.71428571,2.1 L2.4,2.604" id="Line"></path>
                    <path d="M0,3.78 L1.02857143,4.536" id="Line"></path>
                    <path d="M0.857142857,2.52 L1.88571429,3.276" id="Line"></path>
                    <path d="M1.71428571,1.26 L2.74285714,2.016" id="Line"></path>
                </g>
                <path d="M7.61381286,12.7240242 C7.7482003,12.560996 7.9622454,12.5563376 8.10047286,12.7240242 L8.71428571,13.4686533 L7,13.4686533 L7.61381286,12.7240242 Z" id="Triangle-2" stroke-width="0.5" fill="#FBFBFB" transform="translate(7.857143, 13.034327) scale(1, -1) rotate(8.000000) translate(-7.857143, -13.034327) "></path>
                <path d="M8.28571429,14.28 C8.28571429,14.28 9.12279066,15.6025275 9.26254105,17.2869085 C9.40229143,18.9712895 8.5,21 8.5,21" id="Line" stroke-width="0.5" stroke-linecap="square"></path>
            </g>
            <g id="blue" transform="translate(17.000000, 8.000000)" stroke="#00CBFF">
                <ellipse id="Oval-28" stroke-width="0.5" fill="#FBFBFB" cx="5" cy="5.4" rx="5" ry="5.4"></ellipse>
                <g id="Group-3" transform="translate(3.285714, 10.140000) scale(-1, 1) translate(-3.285714, -10.140000) translate(2.285714, 8.640000)" stroke-width="0.25" stroke-linecap="square">
                    <path d="M0.714285714,1.08 L1.42857143,1.62" id="Line"></path>
                    <path d="M0,1.44 L0.714285714,1.98" id="Line"></path>
                </g>
                <path d="M5.50356255,10.9119138 C5.61978864,10.7668891 5.80159395,10.7586108 5.92445445,10.9119138 L6.42829422,11.5405957 L4.99972279,11.5405957 L5.50356255,10.9119138 Z" id="Triangle-2" stroke-width="0.5" fill="#FBFBFB" transform="translate(5.714009, 11.170308) scale(1, -1) rotate(8.000000) translate(-5.714009, -11.170308) "></path>
                <path d="M6.07142857,12.24 C6.07142857,12.24 6.76899222,13.373595 6.88545087,14.8173501 C7.00190953,16.2611053 6.25,18 6.25,18" id="Line" stroke-width="0.5" stroke-linecap="square"></path>
            </g>
            <g id="darkblue" transform="translate(7.000000, 3.000000)" stroke="#002A44">
                <ellipse id="Oval-28" stroke-width="0.5" fill="#FBFBFB" cx="8" cy="7.5" rx="7" ry="7.5"></ellipse>
                <g id="Group-2" transform="translate(2.500000, 10.500000) scale(-1, 1) translate(-2.500000, -10.500000) translate(0.000000, 6.000000)" stroke-width="0.25" stroke-linecap="square">
                    <path d="M1,5.5 L2.2,6.4" id="Line"></path>
                    <path d="M0,7 L1,7.75" id="Line"></path>
                    <path d="M2,4 L3.2,4.9" id="Line"></path>
                    <path d="M3,2.5 L3.8,3.1" id="Line"></path>
                    <path d="M1,4.5 L2.48,5.61" id="Line"></path>
                    <path d="M0,6 L1.48,7.11" id="Line"></path>
                    <path d="M2,3 L3.4,4.05" id="Line"></path>
                    <path d="M3,1.5 L3.8,2.1" id="Line"></path>
                </g>
                <path d="M8.716115,15.1476479 C8.87290036,14.9535667 9.12261963,14.948021 9.283885,15.1476479 L10,16.0341111 L8,16.0341111 L8.716115,15.1476479 Z" id="Triangle-2" stroke-width="0.5" fill="#FBFBFB" transform="translate(9.000000, 15.517056) scale(1, -1) rotate(8.000000) translate(-9.000000, -15.517056) "></path>
                <path d="M9.5,17 C9.5,17 10.4765891,18.7719254 10.6396312,21.0286629 C10.8026733,23.2854004 9.75,26.0034714 9.75,26.0034714" id="Line" stroke-width="0.5" stroke-linecap="square"></path>
            </g>
        </g>
    </g>
</svg>