<?xml version="1.0" encoding="UTF-8" standalone="no"?>
<svg width="31px" height="31px" viewBox="0 0 31 31" version="1.1" xmlns="http://www.w3.org/2000/svg" xmlns:xlink="http://www.w3.org/1999/xlink">
    <!-- Generator: Sketch 3.6.1 (26313) - http://www.bohemiancoding.com/sketch -->
    <title>svg-skydea</title>
    <desc>Created with Sketch.</desc>
    <defs></defs>
    <g id="Page-1" stroke="none" stroke-width="1" fill="none" fill-rule="evenodd">
        <g id="svg-skydea">
            <g id="Group" transform="translate(1.000000, 3.000000)">
                <path d="M9.90120966,10.1097813 C7.69967522,10.5225311 5.97008085,12.0573968 5.52237332,14.0016251 C5.4847634,14.0005445 5.44699941,14 5.40909091,14 C3.52630199,14 2,15.3431458 2,17 C2,18.6568542 3.52630199,20 5.40909091,20 C6.36156015,20 7.22279843,19.6562665 7.84135717,19.1020744 C8.76220574,19.6680316 9.88250322,20 11.0909091,20 C11.9413486,20 12.7481488,19.8355787 13.4724994,19.5408891 C14.3175761,19.8371182 15.2394454,20 16.2045455,20 C17.9108907,20 19.4820965,19.4908314 20.7326693,18.6357286 C21.340872,19.45705 22.3938379,20 23.5909091,20 C25.473698,20 27,18.6568542 27,17 C27,15.3431458 25.473698,14 23.5909091,14 C23.5837261,14 23.5765483,14.0000195 23.5693758,14.0000586 C23.5836443,13.8350187 23.5909091,13.6682559 23.5909091,13.5 C23.5909091,9.91014913 20.2839214,7 16.2045455,7 C13.5368509,7 11.1994654,8.24451452 9.90120966,10.1097813 Z" id="Combined-Shape" stroke="#002A44" stroke-width="0.5" fill="#FBFBFB"></path>
                <rect id="Rectangle-38" fill="#FF115B" transform="translate(11.550946, 3.042300) rotate(-7.000000) translate(-11.550946, -3.042300) " x="11.3009464" y="1.04230005" width="0.5" height="4" rx="1"></rect>
                <rect id="Rectangle-38" fill="#FF115B" transform="translate(17.050946, 2.042300) scale(-1, 1) rotate(-7.000000) translate(-17.050946, -2.042300) " x="16.8009464" y="0.0423000508" width="0.5" height="4" rx="1"></rect>
                <rect id="Rectangle-38" fill="#FF115B" transform="translate(6.466179, 4.900437) rotate(-31.000000) translate(-6.466179, -4.900437) " x="6.21617884" y="2.90043729" width="0.5" height="4" rx="1"></rect>
                <rect id="Rectangle-38" fill="#FF115B" transform="translate(22.295325, 3.966171) scale(-1, 1) rotate(-26.000000) translate(-22.295325, -3.966171) " x="22.0453249" y="1.96617069" width="0.5" height="4" rx="1"></rect>
                <rect id="Rectangle-38" fill="#FF115B" transform="translate(2.478027, 7.909180) rotate(-46.000000) translate(-2.478027, -7.909180) " x="2.22802734" y="5.90917969" width="0.5" height="4" rx="1"></rect>
                <rect id="Rectangle-38" fill="#FF115B" transform="translate(25.846316, 7.645679) scale(-1, 1) rotate(-44.000000) translate(-25.846316, -7.645679) " x="25.5963158" y="5.64567869" width="0.5" height="4" rx="1"></rect>
                <path d="M11.7133969,7.62001562 C13.9298276,8.85585544 14.7105175,11.3588345 14.7105175,11.3588345" id="Line" stroke="#00CBFF" stroke-width="0.5" stroke-linecap="square" transform="translate(13.211957, 9.489425) rotate(-83.000000) translate(-13.211957, -9.489425) "></path>
            </g>
        </g>
    </g>
</svg>