<?xml version="1.0" encoding="UTF-8" standalone="no"?>
<svg width="31px" height="31px" viewBox="0 0 31 31" version="1.1" xmlns="http://www.w3.org/2000/svg" xmlns:xlink="http://www.w3.org/1999/xlink">
    <!-- Generator: Sketch 3.7.1 (28215) - http://www.bohemiancoding.com/sketch -->
    <title>svg-linkedin</title>
    <desc>Created with Sketch.</desc>
    <defs></defs>
    <g id="Page-1" stroke="none" stroke-width="1" fill="none" fill-rule="evenodd">
        <g id="svg-linkedin" fill="#ACADAD">
            <path d="M23.6378833,22.3328833 L23.6378833,16.6720833 C23.6378833,13.6391667 22.0187167,12.2278333 19.86015,12.2278333 C18.1182167,12.2278333 17.3376333,13.1862833 16.9026333,13.8586 L16.9026333,12.4598333 L13.6208,12.4598333 C13.6643,13.3863833 13.6208,22.3328833 13.6208,22.3328833 L16.9026333,22.3328833 L16.9026333,16.8190167 C16.9026333,16.5246667 16.9239,16.2298333 17.0109,16.0191 C17.2477333,15.4294333 17.7876167,14.8189833 18.6938667,14.8189833 C19.8819,14.8189833 20.3565333,15.7242667 20.3565333,17.0510167 L20.3565333,22.3333667 L23.6378833,22.3333667 L23.6378833,22.3328833 Z M10.1635167,11.1123 C11.3075667,11.1123 12.0204833,10.3534667 12.0204833,9.40565 C11.9992167,8.43753333 11.3075667,7.70045 10.1852667,7.70045 C9.06296667,7.70045 8.32878333,8.43705 8.32878333,9.40565 C8.32878333,10.3534667 9.04121667,11.1123 10.1427333,11.1123 L10.1635167,11.1123 L10.1635167,11.1123 Z M15.5,30 C7.49213333,30 1,23.5078667 1,15.5 C1,7.49165 7.49213333,1 15.5,1 C23.5078667,1 30,7.49165 30,15.5 C30,23.5078667 23.5078667,30 15.5,30 L15.5,30 Z M11.8044333,22.3328833 L11.8044333,12.4598333 L8.52308333,12.4598333 L8.52308333,22.3328833 L11.8044333,22.3328833 L11.8044333,22.3328833 Z" id="Shape"></path>
        </g>
    </g>
</svg>