<?xml version="1.0" encoding="UTF-8" standalone="no"?>
<svg width="278px" height="314px" viewBox="0 0 278 314" version="1.1" xmlns="http://www.w3.org/2000/svg" xmlns:xlink="http://www.w3.org/1999/xlink" xmlns:sketch="http://www.bohemiancoding.com/sketch/ns">
    <!-- Generator: Sketch 3.3.3 (12072) - http://www.bohemiancoding.com/sketch -->
    <title>Slice 1</title>
    <desc>Created with Sketch.</desc>
    <defs></defs>
    <g id="Page-1" stroke="none" stroke-width="1" fill="none" fill-rule="evenodd" sketch:type="MSPage">
        <g id="bird-four" sketch:type="MSLayerGroup">
            <path d="M178.8573,70.8056965 L201.866733,197.888434 L132.676677,197.888434 L111.241854,153.730487 L178.8573,70.8056965 L178.8573,70.8056965 Z" id="Polygon-1" fill="#002B43" sketch:type="MSShapeGroup"></path>
            <path d="M46.3333333,19.5141115 L176.693343,67.1599545 L108.176343,150.388557 L46.3333333,19.5141115 L46.3333333,19.5141115 Z" id="Triangle-26" fill="#FF1C5E" sketch:type="MSShapeGroup"></path>
            <path d="M190.375024,51.3628704 L181.295003,64.6627004 L62.6495443,22.1192375 L57.563737,0.775087927 L190.375024,51.3628704 L190.375024,51.3628704 Z" id="Polygon-2" fill="#99E000" sketch:type="MSShapeGroup"></path>
            <path d="M192.558211,52.7161626 L213.972673,116.608301 L204.695825,195.739687 L182.684098,70.0170304 L192.558211,52.7161626 L192.558211,52.7161626 Z" id="Polygon-3" fill="#00CCFF" sketch:type="MSShapeGroup"></path>
            <path d="M217.923901,119.118002 L272.683431,153.167558 L208.446834,195.646902 L217.923901,119.118002 L217.923901,119.118002 Z" id="Triangle-27" fill="#FF1C5E" sketch:type="MSShapeGroup"></path>
            <path d="M273.366667,156.583602 L277.957015,171.560338 L261.979028,163.950898 L273.366667,156.583602 L273.366667,156.583602 Z" id="Triangle-28" fill="#99E000" sketch:type="MSShapeGroup"></path>
            <path d="M7.59930013,193.157569 L124.382829,200.638016 L0.782779948,313.506659 L7.59930013,193.157569 L7.59930013,193.157569 Z" id="Triangle-24" fill="#002B43" sketch:type="MSShapeGroup"></path>
            <path d="M109.073372,157.850899 L127.480013,196.833862 L11.0743001,189.236869 L109.073372,157.850899 L109.073372,157.850899 Z" id="Triangle-25" fill="#99E000" sketch:type="MSShapeGroup"></path>
        </g>
    </g>
</svg>