<?xml version="1.0" encoding="UTF-8" standalone="no"?>
<svg width="287px" height="296px" viewBox="0 0 287 296" version="1.1" xmlns="http://www.w3.org/2000/svg" xmlns:xlink="http://www.w3.org/1999/xlink" xmlns:sketch="http://www.bohemiancoding.com/sketch/ns">
    <!-- Generator: Sketch 3.3.3 (12072) - http://www.bohemiancoding.com/sketch -->
    <title>Slice 1</title>
    <desc>Created with Sketch.</desc>
    <defs></defs>
    <g id="Page-1" stroke="none" stroke-width="1" fill="none" fill-rule="evenodd" sketch:type="MSPage">
        <g id="bird-two" sketch:type="MSLayerGroup">
            <path d="M174.925676,145.180495 L184.251014,216.073027 L126.345439,193.808353 L174.925676,145.180495 L174.925676,145.180495 Z" id="Triangle-14" fill="#FF1C5E" sketch:type="MSShapeGroup"></path>
            <path d="M120.946959,196.010221 L173.385642,217.140553 L38.4494932,241.965468 L120.946959,196.010221 L120.946959,196.010221 Z" id="Triangle-15" fill="#00CCFF" sketch:type="MSShapeGroup"></path>
            <path d="M259.26875,141.162467 L286.083277,155.497382 L247.190203,155.497382 L259.26875,141.162467 L259.26875,141.162467 Z" id="Triangle-13" fill="#002B43" sketch:type="MSShapeGroup"></path>
            <path d="M30.6467061,249.42752 L98.4545608,237.005192 L38.4456926,295.952215 L30.6467061,249.42752 L30.6467061,249.42752 Z" id="Triangle-16" fill="#002B43" sketch:type="MSShapeGroup"></path>
            <path d="M253.5875,139.650012 L189.588682,211.83785 L179.164189,139.650012 L253.5875,139.650012 L253.5875,139.650012 Z" id="Triangle-12" fill="#99E000" sketch:type="MSShapeGroup"></path>
            <path d="M172.211993,109.399394 L176.537162,131.879699 L158.999324,109.399394 L172.211993,109.399394 L172.211993,109.399394 Z" id="Triangle-11" fill="#FF1C5E" sketch:type="MSShapeGroup"></path>
            <path d="M147.682432,108.848168 L119.019257,185.981854 L0.37888514,60.1823462 L147.682432,108.848168 L147.682432,108.848168 Z" id="Triangle-8" fill="#FF1C5E" sketch:type="MSShapeGroup"></path>
            <path d="M152.497128,111.429667 L174.173142,138.41393 L125.285811,186.375153 L152.497128,111.429667 L152.497128,111.429667 Z" id="Triangle-9" fill="#00CCFF" sketch:type="MSShapeGroup"></path>
            <path d="M36.6449324,0.106297039 L154.053885,105.73822 L64.8934306,73.9939115 L36.6449324,0.106297039 L36.6449324,0.106297039 Z" id="Triangle-10" fill="#99E000" sketch:type="MSShapeGroup"></path>
        </g>
    </g>
</svg>