<?xml version="1.0" encoding="UTF-8" standalone="no"?>
<svg width="16px" height="16px" viewBox="0 0 16 16" version="1.1" xmlns="http://www.w3.org/2000/svg" xmlns:xlink="http://www.w3.org/1999/xlink" xmlns:sketch="http://www.bohemiancoding.com/sketch/ns">
    <!-- Generator: Sketch 3.3.3 (12072) - http://www.bohemiancoding.com/sketch -->
    <title>Slice 1</title>
    <desc>Created with Sketch.</desc>
    <defs></defs>
    <g id="Page-1" stroke="none" stroke-width="1" fill="none" fill-rule="evenodd" sketch:type="MSPage">
        <g id="1448694128_16.Pen" sketch:type="MSLayerGroup" fill="#FFFCF1">
            <path d="M15.6595745,1.37021277 C15.661617,1.45804255 15.6306383,1.54655319 15.5639149,1.61361702 C15.5492766,1.62791489 15.531234,1.6347234 15.5148936,1.64595745 L14.5991489,2.56170213 L14.8340426,2.79659574 C14.850383,2.80782979 14.868766,2.8146383 14.8830638,2.82893617 C14.9497872,2.896 14.980766,2.98451064 14.9787234,3.072 C14.980766,3.15982979 14.9497872,3.24834043 14.8830638,3.31540426 C14.868766,3.32970213 14.850383,3.33651064 14.8340426,3.34774468 L4.03778723,14.1446809 C4,14.2171915 3.94008511,14.2781277 3.85974468,14.3084255 L0.523574468,15.6170213 C0.503829787,15.6275745 0.483744681,15.634383 0.461957447,15.6411915 L0.45787234,15.6428936 C0.455148936,15.6439149 0.452085106,15.643234 0.449702128,15.6442553 C0.418042553,15.652766 0.386382979,15.6599149 0.352340426,15.6595745 C0.318978723,15.6605957 0.288,15.6544681 0.256,15.645617 C0.249191489,15.6435745 0.242723404,15.6449362 0.235574468,15.6425532 C0.232851064,15.6415319 0.231148936,15.6391489 0.228425532,15.6381277 C0.198468085,15.6268936 0.172595745,15.6098723 0.146723404,15.5901277 C0.133446809,15.5805957 0.119489362,15.5720851 0.108255319,15.5608511 C0.0970212766,15.549617 0.0885106383,15.5356596 0.0789787234,15.522383 C0.0592340426,15.4968511 0.0425531915,15.4706383 0.0309787234,15.4406809 C0.0296170213,15.4379574 0.0275744681,15.4362553 0.0265531915,15.4335319 C0.0241702128,15.4267234 0.0255319149,15.4199149 0.0234893617,15.412766 C0.0149787234,15.3814468 0.00885106383,15.3501277 0.00953191489,15.3171064 C0.00953191489,15.2830638 0.0163404255,15.2514043 0.0248510638,15.2194043 C0.026212766,15.2166809 0.0251914894,15.2139574 0.026212766,15.2115745 L0.0282553191,15.2071489 C0.0350638298,15.1857021 0.0415319149,15.1652766 0.0520851064,15.1455319 L1.36068085,11.8093617 C1.39131915,11.7290213 1.45225532,11.6691064 1.52476596,11.6313191 L10.976,2.18076596 C10.8861277,1.89685106 10.6236596,1.68953191 10.3097872,1.68953191 C10.1024681,1.68953191 9.91795745,1.78110638 9.78961702,1.92408511 L9.78859574,1.92340426 L8.68221277,3.02978723 L8.68323404,3.03080851 L6.35574468,5.35829787 C6.22604255,5.488 6.01565957,5.488 5.88561702,5.35829787 C5.75591489,5.22859574 5.75591489,5.01787234 5.88561702,4.88817021 L9.30655319,1.46757447 C9.31234043,1.46178723 9.31948936,1.46008511 9.32561702,1.45497872 C9.57378723,1.19421277 9.92170213,1.02978723 10.3101277,1.02978723 C10.8037447,1.02978723 11.2289362,1.29668085 11.4662128,1.69089362 L12.3220426,0.835404255 C12.3332766,0.819404255 12.3400851,0.801021277 12.354383,0.786723404 C12.4214468,0.719659574 12.5099574,0.688680851 12.5977872,0.69106383 C12.685617,0.688680851 12.7741277,0.719659574 12.8411915,0.786723404 C12.8554894,0.801021277 12.8622979,0.819404255 12.8735319,0.835404255 L13.1084255,1.07029787 L14.0241702,0.154553191 C14.0354043,0.138553191 14.0422128,0.120170213 14.0565106,0.10587234 C14.1235745,0.0388085106 14.2120851,0.00782978723 14.2999149,0.010212766 C14.3877447,0.00782978723 14.4762553,0.0388085106 14.5433191,0.10587234 C14.557617,0.120170213 14.5644255,0.138553191 14.5756596,0.154553191 L15.5159149,1.09480851 C15.5322553,1.10604255 15.5502979,1.11285106 15.5649362,1.12714894 C15.6306383,1.19421277 15.661617,1.2827234 15.6595745,1.37021277 L15.6595745,1.37021277 Z M0.978723404,14.6910638 L3.1492766,13.8393191 L1.83012766,12.5201702 L0.978723404,14.6910638 L0.978723404,14.6910638 Z M12.5971064,1.49991489 L2.17361702,11.9234043 L3.74604255,13.4958298 L14.1695319,3.07234043 L12.5971064,1.49991489 L12.5971064,1.49991489 Z M14.299234,0.81906383 L13.5778723,1.54042553 L14.1290213,2.09157447 L14.850383,1.37021277 L14.299234,0.81906383 L14.299234,0.81906383 Z" id="Shape" sketch:type="MSShapeGroup"></path>
        </g>
    </g>
</svg>