<?xml version="1.0" encoding="UTF-8" standalone="no"?>
<svg width="22px" height="16px" viewBox="0 0 22 16" version="1.1" xmlns="http://www.w3.org/2000/svg" xmlns:xlink="http://www.w3.org/1999/xlink" xmlns:sketch="http://www.bohemiancoding.com/sketch/ns">
    <!-- Generator: Sketch 3.3.3 (12072) - http://www.bohemiancoding.com/sketch -->
    <title>Slice 1</title>
    <desc>Created with Sketch.</desc>
    <defs></defs>
    <g id="Page-1" stroke="none" stroke-width="1" fill="none" fill-rule="evenodd" sketch:type="MSPage">
        <g id="1448784945_code1" sketch:type="MSLayerGroup" fill="#99E000">
            <path d="M8.37342,0.601967213 C7.9695,0.148721311 7.4239,0.148721311 7.01954,0.601967213 L0,8.13114754 L7.01932,15.6598033 C7.42368,16.1133115 7.96928,16.1133115 8.3732,15.6598033 C8.77756,15.2060328 8.77756,14.4705574 8.3732,14.0170492 L2.92358,8.13114754 L8.37342,2.24498361 C8.77756,1.7917377 8.77756,1.0562623 8.37342,0.601967213 L8.37342,0.601967213 Z M14.98068,0.601967213 C14.57632,0.148721311 14.03116,0.148721311 13.6268,0.601967213 C13.22244,1.056 13.24444,1.79147541 13.6488,2.24498361 L19.07642,8.13114754 L13.64858,14.0170492 C13.24422,14.4705574 13.22222,15.2057705 13.62658,15.6598033 C14.03094,16.1133115 14.5761,16.1133115 14.98046,15.6598033 L22,8.13114754 L14.98068,0.601967213 L14.98068,0.601967213 Z" id="Shape" sketch:type="MSShapeGroup"></path>
        </g>
    </g>
</svg>