<?xml version="1.0" encoding="UTF-8" standalone="no"?>
<svg width="127px" height="100px" viewBox="0 0 127 100" version="1.1" xmlns="http://www.w3.org/2000/svg" xmlns:xlink="http://www.w3.org/1999/xlink" xmlns:sketch="http://www.bohemiancoding.com/sketch/ns">
    <!-- Generator: Sketch 3.3.3 (12072) - http://www.bohemiancoding.com/sketch -->
    <title>Slice 1</title>
    <desc>Created with Sketch.</desc>
    <defs></defs>
    <g id="Page-1" stroke="none" stroke-width="1" fill="none" fill-rule="evenodd" sketch:type="MSPage">
        <g id="devironment" sketch:type="MSLayerGroup" transform="translate(2.000000, 2.000000)">
            <g id="Page-1" sketch:type="MSShapeGroup">
                <g id="devironment">
                    <g id="code42">
                        <g id="Group">
                            <path d="M117.767648,22.011336 L5.02534936,22.011336 C4.00327573,22.011336 3.17711495,21.327987 3.17711495,20.4825911 C3.17711495,19.6371952 4.00327573,18.9538461 5.02534936,18.9538461 L117.767648,18.9538461 C118.787874,18.9538461 119.615883,19.6371952 119.615883,20.4825911 C119.615883,21.327987 118.787874,22.011336 117.767648,22.011336 L117.767648,22.011336 L117.767648,22.011336 Z" id="Shape" fill="#99E000"></path>
                            <path d="M17.9629902,14.3676114 L16.1147558,14.3676114 C15.0926822,14.3676114 14.2665214,13.6842623 14.2665214,12.8388664 C14.2665214,11.9934704 15.0926822,11.3101215 16.1147558,11.3101215 L17.9629902,11.3101215 C18.9832156,11.3101215 19.8112246,11.9934704 19.8112246,12.8388664 C19.8112246,13.6842623 18.9832156,14.3676114 17.9629902,14.3676114 L17.9629902,14.3676114 L17.9629902,14.3676114 Z" id="Shape" fill="#FF1C5E"></path>
                            <path d="M30.9006311,14.3676114 L29.0523967,14.3676114 C28.0303231,14.3676114 27.2041623,13.6842623 27.2041623,12.8388664 C27.2041623,11.9934704 28.0303231,11.3101215 29.0523967,11.3101215 L30.9006311,11.3101215 C31.9208565,11.3101215 32.7488655,11.9934704 32.7488655,12.8388664 C32.7488655,13.6842623 31.9208565,14.3676114 30.9006311,14.3676114 L30.9006311,14.3676114 L30.9006311,14.3676114 Z" id="Shape" fill="#FFC500"></path>
                            <path d="M43.838272,14.3676114 L41.9900376,14.3676114 C40.9679639,14.3676114 40.1418032,13.6842623 40.1418032,12.8388664 C40.1418032,11.9934704 40.9679639,11.3101215 41.9900376,11.3101215 L43.838272,11.3101215 C44.8584974,11.3101215 45.6865064,11.9934704 45.6865064,12.8388664 C45.6865064,13.6842623 44.8584974,14.3676114 43.838272,14.3676114 L43.838272,14.3676114 L43.838272,14.3676114 Z" id="Shape" fill="#99E000"></path>
                            <g transform="translate(0.000000, 0.168421)">
                                <path d="M42.2986927,76.0827855 C41.7608565,76.0827855 41.2267168,75.8886348 40.8626146,75.5186785 L23.9198497,58.2255158 C23.3709241,57.6644664 23.3709241,56.8603465 23.9198497,56.2992972 L34.3568295,45.643945 C35.000015,44.9896421 36.1644027,44.8902737 36.955447,45.4192195 C37.7501878,45.9512227 37.8703231,46.914332 37.2271375,47.5686348 L27.7327573,57.2608777 L43.7310744,73.5939887 C44.37426,74.2528777 44.2504282,75.2144583 43.4593839,75.743404 C43.1174606,75.9742445 42.7071525,76.0827855 42.2986927,76.0827855 L42.2986927,76.0827855 L42.2986927,76.0827855 Z" id="Shape" fill="#FF1C5E"></path>
                                <path d="M40.6075582,43.2208842 C40.1990984,43.2208842 39.7887904,43.1092859 39.4450188,42.8784454 C38.6521262,42.3464421 38.5301427,41.3833328 39.1733283,40.7290299 L40.8626146,39.0061344 C41.5076484,38.3503029 42.6701878,38.2509344 43.4612322,38.7829376 C44.2522765,39.3149409 44.3761082,40.2780502 43.7329226,40.932353 L42.0436364,42.6552486 C41.6795342,43.0267336 41.1453944,43.2208842 40.6075582,43.2208842 L40.6075582,43.2208842 L40.6075582,43.2208842 Z" id="Shape" fill="#FF1C5E"></path>
                                <path d="M82.3425394,76.0827855 C81.9322314,76.0827855 81.5219234,75.9742445 81.18,75.7418753 C80.383411,75.2098721 80.265124,74.2482915 80.9083095,73.59246 L96.9066266,57.259349 L80.9083095,40.9292955 C80.265124,40.2719352 80.3889557,39.3088259 81.18,38.7783514 C81.9691961,38.2478769 83.135432,38.3487741 83.7767693,39.0030769 L100.717686,56.2977684 C101.270308,56.8588178 101.270308,57.6629377 100.717686,58.2239871 L83.7767693,75.5171498 C83.4126672,75.8901635 82.8803757,76.0827855 82.3425394,76.0827855 L82.3425394,76.0827855 L82.3425394,76.0827855 Z" id="Shape" fill="#FF1C5E"></path>
                                <path d="M54.6190233,67.9620923 C54.2105635,67.9620923 53.8002554,67.8520227 53.4564838,67.6211822 C52.6635913,67.089179 52.5416078,66.1260696 53.1847934,65.4717668 L70.1275582,48.1770753 C70.772592,47.5227724 71.9351315,47.4218753 72.7261758,47.9508211 C73.5190684,48.4828243 73.6410518,49.4474623 72.9978663,50.103294 L56.0551014,67.3964567 C55.6909992,67.7694704 55.1568595,67.9620923 54.6190233,67.9620923 L54.6190233,67.9620923 L54.6190233,67.9620923 Z" id="Shape" fill="#00CCFF"></path>
                                <rect id="Rectangle-1" stroke="#002B43" stroke-width="4" x="0" y="0.67368421" width="123" height="94.3157895" rx="8"></rect>
                            </g>
                        </g>
                    </g>
                </g>
            </g>
        </g>
    </g>
</svg>