<?xml version="1.0" encoding="UTF-8" standalone="no"?>
<svg width="316px" height="178px" viewBox="0 0 316 178" version="1.1" xmlns="http://www.w3.org/2000/svg" xmlns:xlink="http://www.w3.org/1999/xlink" xmlns:sketch="http://www.bohemiancoding.com/sketch/ns">
    <!-- Generator: Sketch 3.3.3 (12072) - http://www.bohemiancoding.com/sketch -->
    <title>devironment</title>
    <desc>Created with Sketch.</desc>
    <defs></defs>
    <g id="Page-1" stroke="none" stroke-width="1" fill="none" fill-rule="evenodd" sketch:type="MSPage">
        <g id="devironment" sketch:type="MSArtboardGroup">
            <g id="code42" sketch:type="MSLayerGroup" transform="translate(97.000000, 40.000000)">
                <g id="Group" sketch:type="MSShapeGroup">
                    <path d="M117.767648,22.4699055 L5.02534936,22.4699055 C4.00327573,22.4699055 3.17711495,21.7723201 3.17711495,20.9093117 C3.17711495,20.0463034 4.00327573,19.3487179 5.02534936,19.3487179 L117.767648,19.3487179 C118.787874,19.3487179 119.615883,20.0463034 119.615883,20.9093117 C119.615883,21.7723201 118.787874,22.4699055 117.767648,22.4699055 L117.767648,22.4699055 Z" id="Shape" fill="#99E000"></path>
                    <path d="M17.9629902,14.6669366 L16.1147558,14.6669366 C15.0926822,14.6669366 14.2665214,13.9693511 14.2665214,13.1063428 C14.2665214,12.2433344 15.0926822,11.545749 16.1147558,11.545749 L17.9629902,11.545749 C18.9832156,11.545749 19.8112246,12.2433344 19.8112246,13.1063428 C19.8112246,13.9693511 18.9832156,14.6669366 17.9629902,14.6669366 L17.9629902,14.6669366 Z" id="Shape" fill="#FF1C5E"></path>
                    <path d="M30.9006311,14.6669366 L29.0523967,14.6669366 C28.0303231,14.6669366 27.2041623,13.9693511 27.2041623,13.1063428 C27.2041623,12.2433344 28.0303231,11.545749 29.0523967,11.545749 L30.9006311,11.545749 C31.9208565,11.545749 32.7488655,12.2433344 32.7488655,13.1063428 C32.7488655,13.9693511 31.9208565,14.6669366 30.9006311,14.6669366 L30.9006311,14.6669366 Z" id="Shape" fill="#FFC500"></path>
                    <path d="M43.838272,14.6669366 L41.9900376,14.6669366 C40.9679639,14.6669366 40.1418032,13.9693511 40.1418032,13.1063428 C40.1418032,12.2433344 40.9679639,11.545749 41.9900376,11.545749 L43.838272,11.545749 C44.8584974,11.545749 45.6865064,12.2433344 45.6865064,13.1063428 C45.6865064,13.9693511 44.8584974,14.6669366 43.838272,14.6669366 L43.838272,14.6669366 Z" id="Shape" fill="#99E000"></path>
                    <g transform="translate(0.000000, 0.171930)">
                        <path d="M42.2986927,77.6678435 C41.7608565,77.6678435 41.2267168,77.469648 40.8626146,77.0919843 L23.9198497,59.4385474 C23.3709241,58.8658094 23.3709241,58.0449371 23.9198497,57.4721992 L34.3568295,46.5948605 C35.000015,45.9269263 36.1644027,45.8254877 36.955447,46.3654532 C37.7501878,46.9085398 37.8703231,47.8917139 37.2271375,48.559648 L27.7327573,58.4538127 L43.7310744,75.1271968 C44.37426,75.7998127 44.2504282,76.7814262 43.4593839,77.3213916 C43.1174606,77.5570413 42.7071525,77.6678435 42.2986927,77.6678435 L42.2986927,77.6678435 Z" id="Shape" fill="#FF1C5E"></path>
                        <path d="M40.6075582,44.1213193 C40.1990984,44.1213193 39.7887904,44.007396 39.4450188,43.7717463 C38.6521262,43.2286596 38.5301427,42.2454856 39.1733283,41.5775514 L40.8626146,39.8187622 C41.5076484,39.1492675 42.6701878,39.0478289 43.4612322,39.5909155 C44.2522765,40.1340022 44.3761082,41.1171762 43.7329226,41.7851104 L42.0436364,43.5438996 C41.6795342,43.9231239 41.1453944,44.1213193 40.6075582,44.1213193 L40.6075582,44.1213193 Z" id="Shape" fill="#FF1C5E"></path>
                        <path d="M82.3425394,77.6678435 C81.9322314,77.6678435 81.5219234,77.5570413 81.18,77.319831 C80.383411,76.7767444 80.265124,75.7951309 80.9083095,75.1256362 L96.9066266,58.4522521 L80.9083095,41.7819892 C80.265124,41.1109339 80.3889557,40.1277598 81.18,39.5862337 C81.9691961,39.0447077 83.135432,39.1477069 83.7767693,39.815641 L100.717686,57.4706386 C101.270308,58.0433765 101.270308,58.8642489 100.717686,59.4369868 L83.7767693,77.0904238 C83.4126672,77.4712086 82.8803757,77.6678435 82.3425394,77.6678435 L82.3425394,77.6678435 Z" id="Shape" fill="#FF1C5E"></path>
                        <path d="M54.6190233,69.3779692 C54.2105635,69.3779692 53.8002554,69.2656065 53.4564838,69.0299568 C52.6635913,68.4868702 52.5416078,67.5036961 53.1847934,66.8357619 L70.1275582,49.1807644 C70.772592,48.5128302 71.9351315,48.409831 72.7261758,48.9497965 C73.5190684,49.4928831 73.6410518,50.4776178 72.9978663,51.1471126 L56.0551014,68.8005495 C55.6909992,69.1813344 55.1568595,69.3779692 54.6190233,69.3779692 L54.6190233,69.3779692 Z" id="Shape" fill="#00CCFF"></path>
                        <rect id="Rectangle-1" stroke="#002B43" stroke-width="4" x="0" y="0.687719298" width="123" height="96.2807018" rx="8"></rect>
                    </g>
                </g>
            </g>
        </g>
    </g>
</svg>