<?xml version="1.0" encoding="UTF-8" standalone="no"?>
<svg width="316px" height="178px" viewBox="0 0 316 178" version="1.1" xmlns="http://www.w3.org/2000/svg" xmlns:xlink="http://www.w3.org/1999/xlink" xmlns:sketch="http://www.bohemiancoding.com/sketch/ns">
    <!-- Generator: Sketch 3.3.3 (12072) - http://www.bohemiancoding.com/sketch -->
    <title>fresh-function</title>
    <desc>Created with Sketch.</desc>
    <defs></defs>
    <g id="Page-1" stroke="none" stroke-width="1" fill="none" fill-rule="evenodd" sketch:type="MSPage">
        <g id="fresh-function" sketch:type="MSArtboardGroup">
            <g id="shirts4" sketch:type="MSLayerGroup" transform="translate(102.000000, 30.000000)">
                <g id="Group" sketch:type="MSShapeGroup">
                    <path d="M111.553941,31.7926551 C111.553941,31.7926551 96.0890693,11.487871 93.9821386,9.45024814 C93.5848713,9.06608933 84.0321584,0.100724566 69.5822178,0.100724566 C68.8350891,0.100724566 68.2221386,0.728496278 68.1966337,1.51731017 C68.1941386,1.59548883 68.1811089,1.91640199 68.1309307,2.40977667 C68.1281584,2.4261737 68.1223366,2.4413995 68.120396,2.45808933 C67.4303762,3.22640695 63.2586535,4.62249628 56.058495,4.62249628 C48.8580594,4.62249628 44.6982574,3.2226005 44.0240396,2.45633251 C43.9699802,1.93748387 43.956396,1.6001737 43.9536238,1.51994541 C43.9306139,0.72937469 43.3171089,0.10101737 42.5683168,0.10101737 C28.1186535,0.10101737 18.6166733,9.13519107 18.168396,9.45054094 C17.0442376,10.2411117 0.596594059,31.7929479 0.596594059,31.7929479 C0.149148515,32.3624516 0.174376238,33.1951861 0.655366337,33.7333598 L14.1067327,48.7761638 C14.373703,49.0748238 14.740198,49.2349876 15.1150099,49.2349876 C15.2769109,49.2349876 15.4404752,49.2051216 15.5979406,49.14334 L20.1708119,47.3469876 L20.1708119,116.301444 C20.1708119,117.109876 20.7912475,117.765464 21.5569505,117.765464 L90.5930297,117.765464 C91.3584554,117.765464 91.9791683,117.109876 91.9791683,116.301444 L91.9791683,47.3469876 L96.5525941,49.14334 C96.7100594,49.2051216 96.8736238,49.2349876 97.0355248,49.2349876 C97.4100594,49.2349876 97.7768317,49.074531 98.0435248,48.7761638 L111.494891,33.7333598 C111.975881,33.1948933 112.001386,32.3624516 111.553941,31.7926551 L111.553941,31.7926551 Z M20.1710891,34.3804566 L20.1710891,44.2224764 L15.4920396,46.0604069 L3.51386139,32.6646253 L18.6651881,13.3796774 C20.0161188,18.7060744 20.2232079,29.8911861 20.1710891,34.3804566 L20.1710891,34.3804566 Z M56.058495,7.55053598 C57.0753663,7.55053598 63.3881188,7.48846154 67.4400792,6.01624318 C66.2859802,10.0870968 63.3800792,15.4377965 56.0751287,15.445995 C48.7743366,15.4380893 45.8678812,10.09266 44.712396,6.02327047 C48.7690693,7.49021836 55.0879208,7.55053598 56.058495,7.55053598 L56.058495,7.55053598 Z M89.2071683,34.3804566 L89.2071683,114.837132 L22.9433663,114.837132 L22.9430891,34.3980248 C22.9649901,32.5331563 23.0742178,17.0294789 20.8148119,10.9453052 C23.2042376,8.99347395 30.8487921,3.47411911 41.3058218,3.05394541 C41.4965545,4.61605459 41.9764356,7.23430769 43.1768317,9.87159305 C44.9391683,13.74334 48.6035644,18.3564665 56.0515644,18.3731563 C56.0540594,18.3731563 56.0562772,18.3737419 56.0587723,18.3737419 C56.0643168,18.3737419 56.0695842,18.3734491 56.0748515,18.3734491 C56.080396,18.3734491 56.0856634,18.3737419 56.0909307,18.3737419 C56.0934257,18.3737419 56.0956436,18.3731563 56.0981386,18.3731563 C63.5464158,18.3564665 67.2108119,13.74334 68.9731485,9.87159305 C70.1735446,7.23430769 70.6534257,4.61605459 70.8441584,3.05394541 C81.3020198,3.4738263 88.9474059,8.99464516 91.3354455,10.9450124 C89.0765941,17.0294789 89.1855446,32.5322779 89.2071683,34.3804566 L89.2071683,34.3804566 Z M96.658495,46.0606998 L91.9794455,44.2227692 L91.9794455,34.3623027 C91.9273267,29.8891365 92.1338614,18.7063672 93.4850693,13.3796774 L108.636673,32.6649181 L96.658495,46.0606998 L96.658495,46.0606998 Z" id="Shape" fill="#002B43"></path>
                    <path d="M35.5,43.5 L60,43.5" id="Line" stroke="#99E000" stroke-width="4" stroke-linecap="square"></path>
                    <path d="M68,38.5 L78,49" id="Line-Copy-2" stroke="#00CCFF" stroke-width="4" stroke-linecap="square"></path>
                    <path d="M68,50.5 L78,61" id="Line-Copy-3" stroke="#FF1C5E" stroke-width="4" stroke-linecap="square" transform="translate(73.000000, 55.500000) scale(1, -1) translate(-73.000000, -55.500000) "></path>
                    <path d="M35.5,55.5 L60,55.5" id="Line-Copy" stroke="#00CCFF" stroke-width="4" stroke-linecap="square"></path>
                </g>
            </g>
        </g>
    </g>
</svg>