<?xml version="1.0" encoding="UTF-8" standalone="no"?>
<svg width="30px" height="30px" viewBox="0 0 30 30" version="1.1" xmlns="http://www.w3.org/2000/svg" xmlns:xlink="http://www.w3.org/1999/xlink" xmlns:sketch="http://www.bohemiancoding.com/sketch/ns">
    <title>github-sand</title>
    <g id="Page-1" stroke="none" stroke-width="1" fill="none" fill-rule="evenodd" sketch:type="MSPage">
        <g id="1445790579_Neon_Line_Social_Circles_50Icon_10px_grid-19" sketch:type="MSLayerGroup" fill="#FFFCF1">
            <g id="Shape" sketch:type="MSShapeGroup">
                <path d="M22.0745161,8.09225806 C21.983871,7.93096774 21.8129032,7.83032258 21.6287097,7.83032258 C21.6183871,7.83032258 21.5890323,7.8316129 21.5787097,7.83290323 C19.4045161,8.04387097 18.3716129,8.74290323 17.9045161,9.2316129 C16.1316129,8.8083871 14.1664516,8.8083871 12.3935484,9.2316129 C11.9274194,8.74258065 10.8945161,8.04387097 8.71903226,7.83258065 C8.70903226,7.8316129 8.68064516,7.83032258 8.67064516,7.83032258 C8.48483871,7.83032258 8.31354839,7.93096774 8.22258065,8.09387097 C8.13387097,8.25516129 7.39387097,9.68451613 7.96806452,11.6348387 C6.99096774,12.6658065 6.47548387,13.8725806 6.47548387,15.136129 C6.47548387,16.793871 6.57483871,18.5258065 7.76225806,19.8825806 C9.0683871,21.3748387 11.4845161,22.1003226 15.1487097,22.1003226 C18.8125806,22.1003226 21.2293548,21.3748387 22.5358065,19.8825806 C23.7229032,18.5258065 23.8219355,16.793871 23.8219355,15.136129 C23.8219355,13.8729032 23.3064516,12.6664516 22.3293548,11.6348387 C22.9045161,9.68483871 22.1645161,8.25516129 22.0745161,8.09225806 L22.0745161,8.09225806 Z M11.1383871,20.2709677 C10.1070968,19.6283871 9.60548387,18.5270968 9.60548387,16.9048387 C9.60548387,15.0080645 10.4077419,14.8509677 11.3016129,14.8509677 C11.8064516,14.8509677 12.3867742,14.9329032 13.0016129,15.0193548 C13.7019355,15.1180645 14.4258065,15.22 15.1490323,15.22 C15.8729032,15.22 16.5964516,15.1180645 17.2964516,15.0193548 C17.9109677,14.9325806 18.4912903,14.8509677 18.9964516,14.8509677 C19.8903226,14.8509677 20.6922581,15.0080645 20.6922581,16.9048387 C20.6922581,18.5274194 20.1909677,19.6283871 19.1596774,20.2709677 C18.2829032,20.8174194 17.0087097,21.0719355 15.1490323,21.0719355 C13.2896774,21.0719355 12.0154839,20.8174194 11.1383871,20.2709677 Z"></path>
                <path d="M11.8158065,15.8735484 C11.1467742,15.8735484 10.6229032,16.5564516 10.6229032,17.4280645 C10.6229032,18.2996774 11.1467742,18.9825806 11.8158065,18.9825806 C12.4848387,18.9825806 13.0090323,18.2996774 13.0090323,17.4280645 C13.0090323,16.5564516 12.4848387,15.8735484 11.8158065,15.8735484 Z M11.8158065,18.3374194 C11.5187097,18.3374194 11.2680645,17.9209677 11.2680645,17.4280645 C11.2680645,16.9351613 11.5187097,16.5187097 11.8158065,16.5187097 C12.1129032,16.5187097 12.363871,16.9351613 12.363871,17.4280645 C12.363871,17.9209677 12.1129032,18.3374194 11.8158065,18.3374194 Z"></path>
                <path d="M18.4822581,15.8735484 C17.8132258,15.8735484 17.2893548,16.5564516 17.2893548,17.4280645 C17.2893548,18.2996774 17.8132258,18.9825806 18.4822581,18.9825806 C19.1512903,18.9825806 19.6754839,18.2996774 19.6754839,17.4280645 C19.6754839,16.5564516 19.1512903,15.8735484 18.4822581,15.8735484 Z M18.4822581,18.3374194 C18.1851613,18.3374194 17.9345161,17.9209677 17.9345161,17.4280645 C17.9345161,16.9351613 18.1851613,16.5187097 18.4822581,16.5187097 C18.7793548,16.5187097 19.0303226,16.9351613 19.0303226,17.4280645 C19.0303226,17.9209677 18.7793548,18.3374194 18.4822581,18.3374194 Z"></path>
            </g>
        </g>
    </g>
</svg>