<?xml version="1.0" encoding="UTF-8" standalone="no"?>
<svg width="16px" height="16px" viewBox="0 0 16 16" version="1.1" xmlns="http://www.w3.org/2000/svg" xmlns:xlink="http://www.w3.org/1999/xlink" xmlns:sketch="http://www.bohemiancoding.com/sketch/ns">
    <!-- Generator: Sketch 3.3.3 (12072) - http://www.bohemiancoding.com/sketch -->
    <title>Slice 1</title>
    <desc>Created with Sketch.</desc>
    <defs></defs>
    <g id="Page-1" stroke="none" stroke-width="1" fill="none" fill-rule="evenodd" sketch:type="MSPage">
        <g id="1448784973_link5" sketch:type="MSLayerGroup" fill="#00CCFF">
            <path d="M5.8596,12.7350123 L5.05,13.5290864 C4.3482,14.2160988 3.2068,14.2166914 2.5054,13.5290864 C2.1682,13.1986173 1.983,12.7597037 1.983,12.2931358 C1.983,11.8265679 2.1684,11.3874568 2.5052,11.0569877 L5.4852,8.13688889 C6.1028,7.53204938 7.2646,6.64138272 8.1114,7.47081481 C8.5,7.85204938 9.1276,7.84948148 9.5134,7.46587654 C9.8994,7.0822716 9.897,6.46222222 9.5084,6.08138272 C8.069,4.67061728 5.9416,4.93135802 4.0888,6.74706173 L1.1086,9.66735802 C0.3936,10.3683951 0,11.3007407 0,12.2931358 C0,13.2855309 0.3936,14.217679 1.1088,14.918716 C1.8446,15.6397037 2.8108,16 3.7774,16 C4.7442,16 5.7108,15.6397037 6.447,14.918321 L7.2572,14.1240494 C7.6456,13.7432099 7.6478,13.123358 7.2618,12.7395556 C6.8764,12.3561481 6.2482,12.3539753 5.8596,12.7350123 L5.8596,12.7350123 Z M14.8908,1.39140741 C13.3448,-0.123654321 11.1832,-0.20582716 9.752,1.19664198 L8.7428,2.18607407 C8.3542,2.56711111 8.3518,3.18676543 8.7378,3.5705679 C9.1238,3.95437037 9.7514,3.95654321 10.14,3.57550617 L11.1488,2.58666667 C11.8902,1.85955556 12.861,2.16098765 13.4942,2.7814321 C13.8318,3.11190123 14.0172,3.55101235 14.0172,4.01758025 C14.0172,4.48434568 13.8316,4.92345679 13.4946,5.25392593 L10.3152,8.36898765 C8.8614,9.79358025 8.1794,9.12493827 7.8884,8.8397037 C7.4998,8.45866667 6.8724,8.46103704 6.4864,8.84464198 C6.1004,9.22824691 6.1028,9.8482963 6.4914,10.2291358 C7.1588,10.883358 7.9206,11.2077037 8.7192,11.2077037 C9.697,11.2077037 10.7298,10.7213827 11.7118,9.75841975 L14.8912,6.64335802 C15.606,5.94232099 16,5.00977778 16,4.01738272 C16,3.02538272 15.606,2.09283951 14.8908,1.39140741 L14.8908,1.39140741 Z" id="Shape" sketch:type="MSShapeGroup"></path>
        </g>
    </g>
</svg>