<?xml version="1.0" encoding="UTF-8" standalone="no"?>
<svg width="30px" height="30px" viewBox="0 0 30 30" version="1.1" xmlns="http://www.w3.org/2000/svg" xmlns:xlink="http://www.w3.org/1999/xlink" xmlns:sketch="http://www.bohemiancoding.com/sketch/ns">
    <!-- Generator: Sketch 3.3.3 (12072) - http://www.bohemiancoding.com/sketch -->
    <title>linkedin-sand</title>
    <desc>Created with Sketch.</desc>
    <defs></defs>
    <g id="Page-1" stroke="none" stroke-width="1" fill="none" fill-rule="evenodd" sketch:type="MSPage">
        <g id="Group" sketch:type="MSLayerGroup" fill="#FFFCF1">
            <path d="M11.1541935,11.8619355 L8.21387097,11.8619355 C8.03580645,11.8619355 7.89129032,12.0064516 7.89129032,12.1845161 L7.89129032,21.6832258 C7.89129032,21.8612903 8.03580645,22.0058065 8.21387097,22.0058065 L11.1541935,22.0058065 C11.3322581,22.0058065 11.4767742,21.8612903 11.4767742,21.6832258 L11.4767742,12.1845161 C11.4767742,12.0064516 11.3322581,11.8619355 11.1541935,11.8619355 Z" id="Shape" sketch:type="MSShapeGroup"></path>
            <path d="M13.0341935,22.0058065 L15.8541935,22.0058065 C16.0322581,22.0058065 16.1767742,21.8612903 16.1767742,21.6832258 L16.1767742,16.6970968 C16.1767742,15.8722581 16.4316129,14.8890323 17.6454839,14.8890323 C17.9616129,14.8890323 18.923871,14.8890323 18.923871,16.6970968 L18.923871,21.6835484 C18.923871,21.8616129 19.0683871,22.006129 19.2464516,22.006129 L22.1722581,22.006129 C22.3503226,22.006129 22.4948387,21.8616129 22.4948387,21.6835484 L22.4948387,15.6690323 C22.4948387,13.1035484 21.0822581,11.5719355 18.7164516,11.5719355 C17.5019355,11.5719355 16.6764516,12.0887097 16.1767742,12.5593548 L16.1767742,12.1848387 C16.1767742,12.0067742 16.0322581,11.8622581 15.8541935,11.8622581 L13.0341935,11.8622581 C12.856129,11.8622581 12.7116129,12.0067742 12.7116129,12.1848387 L12.7116129,21.6835484 C12.7116129,21.8616129 12.856129,22.0058065 13.0341935,22.0058065 Z" id="Shape" sketch:type="MSShapeGroup"></path>
            <path d="M9.67,11.2632258 C10.8064516,11.2632258 11.7312903,10.3322581 11.7312903,9.18806452 C11.7312903,8.04387097 10.8067742,7.11290323 9.67,7.11290323 C8.53322581,7.11290323 7.60870968,8.04387097 7.60870968,9.18806452 C7.60870968,10.3322581 8.53322581,11.2632258 9.67,11.2632258 Z" id="Shape" sketch:type="MSShapeGroup"></path>
        </g>
    </g>
</svg>