<?xml version="1.0" encoding="UTF-8" standalone="no"?>
<svg width="122px" height="112px" viewBox="0 0 122 112" version="1.1" xmlns="http://www.w3.org/2000/svg" xmlns:xlink="http://www.w3.org/1999/xlink" xmlns:sketch="http://www.bohemiancoding.com/sketch/ns">
    <!-- Generator: Sketch 3.3.3 (12072) - http://www.bohemiancoding.com/sketch -->
    <title>Slice 1</title>
    <desc>Created with Sketch.</desc>
    <defs></defs>
    <g id="Page-1" stroke="none" stroke-width="1" fill="none" fill-rule="evenodd" sketch:type="MSPage">
        <g id="passbook" sketch:type="MSLayerGroup" transform="translate(1.000000, 1.000000)">
            <g id="Page-1" sketch:type="MSShapeGroup">
                <g id="passbook">
                    <g id="bank45">
                        <g id="Group">
                            <path d="M112.376266,40.8761503 L108.155851,40.8761503 L117.20166,31.771959 C118.594855,30.3697722 119.362158,28.5055353 119.362158,26.5225285 C119.362158,24.6164465 118.651369,22.8211162 117.358755,21.4392255 C118.65112,20.0573349 119.362158,18.2620046 119.362158,16.3559226 C119.362158,14.3729157 118.594855,12.5086788 117.20166,11.1067426 L108.446639,2.29571754 C107.053693,0.893280182 105.201411,0.121025057 103.231369,0.121025057 C101.261328,0.121025057 99.4087967,0.893280182 98.0158506,2.29546697 L59.6825726,40.8761503 L7.3760166,40.8761503 C3.30896266,40.8761503 0,44.2064692 0,48.2997722 L0,102.456606 C0,106.550159 3.30896266,109.880478 7.3760166,109.880478 L112.376266,109.880478 C116.44332,109.880478 119.752282,106.550159 119.752282,102.456606 L119.752282,48.2997722 C119.752282,44.2064692 116.44332,40.8761503 112.376266,40.8761503 L112.376266,40.8761503 L112.376266,40.8761503 Z M113.504564,28.0510023 L100.761909,40.8761503 L98.0541909,40.8761503 L113.660166,25.1692027 C114.337842,26.0173804 114.286556,27.2644647 113.504564,28.0510023 L113.504564,28.0510023 L113.504564,28.0510023 Z M48.7005809,61.7781549 L58.1006639,71.238656 L44.920332,75.0438041 L48.7005809,61.7781549 L48.7005809,61.7781549 Z M62.993527,68.7214351 L51.2014108,56.8534624 L90.6044813,17.1963326 L102.396349,29.0640547 L62.993527,68.7214351 L62.993527,68.7214351 Z M101.712697,6.01617312 C102.118257,5.60774487 102.657759,5.38298405 103.231369,5.38298405 C103.804979,5.38298405 104.344232,5.60799544 104.749793,6.01617312 L113.505062,14.8274487 C113.910622,15.2356264 114.133942,15.7783599 114.133942,16.3559226 C114.133942,16.9332346 113.910622,17.4762187 113.504813,17.8843964 L106.093693,25.3435991 L94.3018257,13.4756264 L101.712697,6.01617312 L101.712697,6.01617312 Z M114.524066,102.456606 C114.524066,103.648815 113.560581,104.618519 112.376266,104.618519 L7.3760166,104.618519 C6.19170124,104.618519 5.22821577,103.648815 5.22821577,102.456606 L5.22821577,48.2997722 C5.22821577,47.1078132 6.19170124,46.1381093 7.3760166,46.1381093 L54.4543568,46.1381093 L45.4877178,55.1626196 C45.1742739,55.4783371 44.9454772,55.8687244 44.8234855,56.2976993 L38.5941909,78.1561276 C38.3320332,79.075467 38.586473,80.065467 39.2584232,80.741754 C39.7556017,81.2421412 40.4233195,81.5122551 41.1072199,81.5122551 C41.3477178,81.5122551 41.5899585,81.4789294 41.8277178,81.4102733 L63.5459751,75.1407745 C63.9721992,75.0179954 64.360332,74.7877221 64.6737759,74.4722551 L92.8259751,46.1381093 L112.376017,46.1381093 C113.560332,46.1381093 114.523817,47.1078132 114.523817,48.2997722 L114.523817,102.456606 L114.524066,102.456606 L114.524066,102.456606 Z" id="Shape" stroke="#FFFFFF" stroke-width="1.3" fill="#002B43"></path>
                            <path d="M14.5187552,62.1933485 L30.233029,62.1933485 C31.6767635,62.1933485 32.8471369,61.0154214 32.8471369,59.562369 C32.8471369,58.1093166 31.6767635,56.9313895 30.233029,56.9313895 L14.5187552,56.9313895 C13.0750207,56.9313895 11.9046473,58.1093166 11.9046473,59.562369 C11.9046473,61.0154214 13.0752697,62.1933485 14.5187552,62.1933485 L14.5187552,62.1933485 L14.5187552,62.1933485 Z" id="Shape" fill="#FF1C5E"></path>
                            <path d="M104.042739,89.2816629 L14.5187552,89.2816629 C13.0750207,89.2816629 11.9046473,90.45959 11.9046473,91.9126424 C11.9046473,93.3656948 13.0750207,94.5436219 14.5187552,94.5436219 L104.042739,94.5436219 C105.486473,94.5436219 106.656846,93.3656948 106.656846,91.9126424 C106.656846,90.4598405 105.486473,89.2816629 104.042739,89.2816629 L104.042739,89.2816629 L104.042739,89.2816629 Z" id="Shape" fill="#99E000"></path>
                            <path d="M104.042739,73.0465148 L85.7093776,73.0465148 C84.2656432,73.0465148 83.0952697,74.2244419 83.0952697,75.6774943 C83.0952697,77.1305467 84.2656432,78.3084738 85.7093776,78.3084738 L104.042739,78.3084738 C105.486473,78.3084738 106.656846,77.1305467 106.656846,75.6774943 C106.656846,74.2246925 105.486473,73.0465148 104.042739,73.0465148 L104.042739,73.0465148 L104.042739,73.0465148 Z" id="Shape" fill="#00CCFF"></path>
                        </g>
                    </g>
                </g>
            </g>
        </g>
    </g>
</svg>