<?xml version="1.0" encoding="UTF-8" standalone="no"?>
<svg width="316px" height="178px" viewBox="0 0 316 178" version="1.1" xmlns="http://www.w3.org/2000/svg" xmlns:xlink="http://www.w3.org/1999/xlink" xmlns:sketch="http://www.bohemiancoding.com/sketch/ns">
    <!-- Generator: Sketch 3.3.3 (12072) - http://www.bohemiancoding.com/sketch -->
    <title>rhymexdesign</title>
    <desc>Created with Sketch.</desc>
    <defs></defs>
    <g id="Page-1" stroke="none" stroke-width="1" fill="none" fill-rule="evenodd" sketch:type="MSPage">
        <g id="rhymexdesign" sketch:type="MSArtboardGroup">
            <g id="karaoke3" sketch:type="MSLayerGroup" transform="translate(158.500000, 89.500000) scale(-1, 1) translate(-158.500000, -89.500000) translate(107.000000, 38.000000)">
                <g id="Group" sketch:type="MSShapeGroup">
                    <path d="M95.2865451,7.85561758 C85.9891538,-1.44154725 71.1175385,-2.43374286 60.6939385,5.54841758 C59.9493956,6.11842637 59.8081385,7.18419341 60.3779209,7.92850989 C60.9477033,8.67282637 62.0134703,8.81476264 62.7582396,8.2443011 C71.8355956,1.2934989 84.7873363,2.15847253 92.8851736,10.2567626 C100.983237,18.3546 101.848664,31.3063407 94.8978615,40.3836967 C94.3278527,41.1282396 94.4691099,42.1937802 95.2138791,42.763789 C95.5217473,42.9996703 95.8848505,43.1137626 96.2447846,43.1137626 C96.7552571,43.1137626 97.259844,42.8844462 97.5941978,42.4479978 C105.575679,32.0243978 104.58371,17.1527824 95.2865451,7.85561758 L95.2865451,7.85561758 Z" id="Shape" fill="#FF1C5E"></path>
                    <path d="M91.9337253,19.7640022 C91.4499648,19.7640022 90.9951802,19.9523451 90.6547143,20.292811 C90.3119846,20.6346352 90.1229626,21.0896462 90.1227363,21.573633 C90.1225099,22.0576198 90.3108527,22.5128571 90.653356,22.8555868 C90.9954066,23.1976374 91.4501912,23.3859802 91.9337253,23.3859802 C92.4172593,23.3859802 92.8722703,23.1976374 93.2143209,22.8555868 C93.5565978,22.5130835 93.7449407,22.0580725 93.7447143,21.5738593 C93.7444879,21.0896462 93.5554659,20.6348615 93.2140945,20.2943956 C92.8722703,19.9523451 92.4174857,19.7640022 91.9337253,19.7640022 L91.9337253,19.7640022 Z" id="Shape" fill="#00CCFF"></path>
                    <path d="M91.9495714,26.1149143 C91.0291363,26.4974857 90.5899714,27.5582725 90.971411,28.4796132 C91.252567,29.1589604 91.9095033,29.5981253 92.6447648,29.5981253 C92.8833626,29.5981253 93.1163011,29.5517187 93.334978,29.4613956 C93.7834242,29.2764484 94.1324923,28.927833 94.3181187,28.4798396 C94.5037451,28.0318462 94.5028396,27.5383516 94.3178923,27.0946593 C94.0367363,26.4153121 93.3798,25.9761473 92.6445385,25.9761473 C92.4059407,25.9761473 92.1730022,26.0223275 91.9495714,26.1149143 L91.9495714,26.1149143 Z" id="Shape" fill="#99E000"></path>
                    <path d="M94.4863143,44.2802659 C93.702156,45.0635187 90.9951802,44.848011 86.7128703,42.6021582 C82.1494044,40.2087099 76.9043275,36.1588857 71.9440286,31.1983604 C66.9835033,26.2378352 62.9332264,20.9927582 60.5400044,16.4292923 C58.2936989,12.146756 58.078644,9.43955385 58.8618967,8.6563011 C59.5249451,7.99325275 59.5249451,6.9182044 58.8618967,6.25538242 C58.198622,5.59233407 57.1238,5.59233407 56.4607516,6.25538242 C55.5452967,7.17106374 54.8018857,8.72081758 55.1448418,11.3198132 C51.9461824,15.8572462 50.2716967,21.3094549 50.3565868,26.8750769 L43.2221956,35.2907429 C43.2031802,35.3127011 43.1837121,35.334433 43.1658286,35.3572967 L2.78892308,82.9860813 C-1.17827473,87.6659033 -0.876518681,95.0026725 3.46147912,99.3408967 C5.76573626,101.645154 8.92070549,102.815505 12.0777121,102.815505 C14.8596176,102.815505 17.6431077,101.90571 19.8441385,100.061218 L76.2596154,52.7828593 C76.3972505,52.7851231 76.5348857,52.7898769 76.6722945,52.7898769 C82.0971121,52.7898769 87.3938022,51.1153912 91.8212176,47.9941516 C92.2542703,48.0518769 92.673967,48.0837956 93.0755538,48.0837956 C94.6216857,48.0837956 95.9231077,47.6455363 96.8874593,46.6811846 C97.5507341,46.0181363 97.5507341,44.9433143 96.8876857,44.2802659 C96.2246374,43.6172176 95.1493626,43.6172176 94.4863143,44.2802659 L94.4863143,44.2802659 Z M17.6628022,97.4586 C14.2787429,100.294835 8.98476923,100.062123 5.86262418,96.9397516 C2.74364835,93.8210022 2.52678242,88.5462703 5.37886374,85.1819055 L43.8909033,39.752567 C45.6606923,44.1218044 48.3094901,48.1342769 51.6584615,51.4834747 C51.9900989,51.8148857 52.4247363,51.9808176 52.8591473,51.9808176 C53.2935582,51.9808176 53.7281956,51.8151121 54.059833,51.4834747 C54.7228813,50.8204264 54.7228813,49.745378 54.059833,49.082556 C50.6035604,45.6262835 47.9706088,41.3906066 46.4065934,36.7852615 L50.8469121,31.5474286 C51.8490681,36.6483055 54.346422,41.3657055 58.0614396,45.0804967 C61.7685341,48.7875912 66.4739363,51.2824549 71.5623626,52.2889121 L66.287178,56.7097626 C63.7443231,55.841167 61.3237099,54.6581385 59.0823846,53.1810505 C58.2993582,52.6653714 57.2464945,52.8813319 56.7303626,53.6645846 C56.2144571,54.447611 56.4308703,55.5004747 57.2138967,56.0166066 C59.1333187,57.281356 61.1724923,58.3482549 63.2992725,59.2139077 L17.6628022,97.4586 L17.6628022,97.4586 Z M60.462811,42.6793516 C53.2899363,35.5064769 51.7997187,24.4365802 56.4351714,15.7005956 C56.7412286,16.4206901 57.1034264,17.1869648 57.5330835,18.006211 C60.0815978,22.8650945 64.3467033,28.4028725 69.5431099,33.5990527 C75.3242396,39.3804088 81.9569868,44.3886989 87.4393033,46.7083495 C78.7033187,51.3419912 67.6345538,49.8513209 60.462811,42.6793516 L60.462811,42.6793516 Z" id="Shape" fill="#002B43"></path>
                </g>
            </g>
        </g>
    </g>
</svg>