<?xml version="1.0" encoding="UTF-8" standalone="no"?>
<svg width="30px" height="30px" viewBox="0 0 30 30" version="1.1" xmlns="http://www.w3.org/2000/svg" xmlns:xlink="http://www.w3.org/1999/xlink" xmlns:sketch="http://www.bohemiancoding.com/sketch/ns">
    <title>twitter-sand</title>
    <g id="Page-1" stroke="none" stroke-width="1" fill="none" fill-rule="evenodd" sketch:type="MSPage">
        <g id="Shape-+-Shape" sketch:type="MSLayerGroup" fill="#FFFCF1">
            <path d="M7.49580645,19.9067742 C8.91225806,20.8154839 10.5503226,21.296129 12.2332258,21.296129 C15.3712903,21.296129 17.3912903,19.8719355 18.5332258,18.6774194 C20.1548387,16.9812903 21.0780645,14.6003226 21.0222581,12.2767742 C21.5774194,11.8532258 22.056129,11.3425806 22.4474194,10.7564516 C22.5270968,10.6370968 22.5183871,10.4793548 22.4258065,10.3696774 C22.3335484,10.26 22.18,10.2245161 22.0483871,10.2825806 C21.8977419,10.3493548 21.7445161,10.4096774 21.5887097,10.4629032 C21.8051613,10.1729032 21.9735484,9.84741935 22.0858065,9.49774194 C22.1267742,9.37 22.0845161,9.23064516 21.9796774,9.14709677 C21.8751613,9.06354839 21.73,9.05322581 21.6141935,9.1216129 C21.1074194,9.42193548 20.5625806,9.63935484 19.9929032,9.76967742 C19.3819355,9.18870968 18.5619355,8.85903226 17.7154839,8.85903226 C16.7035484,8.85903226 15.7619355,9.31387097 15.1325806,10.1067742 C14.5919355,10.7874194 14.3458065,11.6351613 14.4306452,12.4848387 C12.2880645,12.27 10.3012903,11.2048387 8.93,9.52290323 C8.86290323,9.44096774 8.76,9.39774194 8.65451613,9.40516129 C8.54903226,9.41354839 8.45419355,9.47290323 8.40096774,9.56451613 C7.73612903,10.7051613 7.83451613,12.0951613 8.55419355,13.1216129 C8.50516129,13.0980645 8.45677419,13.0732258 8.40935484,13.0470968 C8.31064516,12.9922581 8.19032258,12.9929032 8.09258065,13.0490323 C7.99451613,13.1051613 7.93322581,13.2083871 7.93032258,13.3212903 C7.90483871,14.3922581 8.43354839,15.3925806 9.26741935,16.0148387 C9.18645161,16.0219355 9.11,16.0596774 9.05451613,16.1222581 C8.97935484,16.2074194 8.95419355,16.326129 8.98903226,16.4345161 C9.33064516,17.4993548 10.1780645,18.2983871 11.2170968,18.5977419 C10.1690323,19.2058065 8.93903226,19.4609677 7.70806452,19.3154839 C7.56258065,19.2993548 7.41741935,19.3854839 7.36645161,19.5270968 C7.31548387,19.6687097 7.36967742,19.8254839 7.49580645,19.9067742 Z" id="Shape" sketch:type="MSShapeGroup"></path>
        </g>
    </g>
</svg>