<?xml version="1.0" encoding="UTF-8" standalone="no"?>
<svg width="30px" height="30px" viewBox="0 0 30 30" version="1.1" xmlns="http://www.w3.org/2000/svg" xmlns:xlink="http://www.w3.org/1999/xlink" xmlns:sketch="http://www.bohemiancoding.com/sketch/ns">
    <!-- Generator: Sketch 3.3.3 (12072) - http://www.bohemiancoding.com/sketch -->
    <title>wordpress-sand</title>
    <desc>Created with Sketch.</desc>
    <defs></defs>
    <g id="Page-1" stroke="none" stroke-width="1" fill="none" fill-rule="evenodd" sketch:type="MSPage">
        <g id="wordpress-sand-+-Shape-+-Shape" sketch:type="MSLayerGroup" fill="#FFFCF1">
            <path d="M6.42645161,10.4770968 C6.54419355,10.4909677 6.55870968,10.4922581 6.67677419,10.5025806 C6.76064516,10.5096774 6.89903226,10.5219355 7.17322581,10.5467742 C7.71935484,12.0419355 11.276129,21.783871 11.48,22.3474194 C11.6370968,22.7825806 12.0490323,23.0748387 12.5045161,23.0748387 C12.9541935,23.0748387 13.3290323,22.7809677 13.4829032,22.3080645 C13.6583871,21.7690323 14.9296774,18.076129 15.6377419,16.0225806 C16.7158065,18.9754839 17.8332258,22.0383871 17.9441935,22.3474194 C18.1016129,22.7825806 18.5135484,23.0748387 18.9690323,23.0748387 C19.4187097,23.0748387 19.7935484,22.7809677 19.9470968,22.3080645 C20.06,21.9616129 20.4151613,20.9480645 20.8651613,19.6651613 C21.4406452,18.0235484 22.2290323,15.7751613 22.9390323,13.6980645 C23.63,11.6148387 23.5532258,9.54387097 22.743871,8.42258065 C22.2167742,7.69322581 21.4216129,7.43451613 20.5522581,7.71806452 C20.1754839,7.84064516 19.7070968,8.23774194 19.5096774,8.84806452 C19.3387097,9.37677419 19.313871,10.2525806 20.1670968,11.4248387 C21.4622581,13.2022581 20.7129032,15.2674194 20.6983871,15.3087097 L19.7532258,18.4435484 L17.0945161,10.533871 C17.3487097,10.513871 17.6335484,10.4896774 17.7093548,10.4783871 C18.0345161,10.43 18.3370968,10.1293548 18.2809677,9.71129032 C18.2335484,9.35258065 17.9770968,9.1383871 17.5951613,9.1383871 L17.4622581,9.14451613 C16.653871,9.19870968 15.9251613,9.22612903 15.2932258,9.22612903 C14.8535484,9.22612903 14.1241935,9.21193548 13.1477419,9.14322581 L13.0990323,9.14 C13.076129,9.13870968 13.0519355,9.13806452 13.0270968,9.13806452 C12.6674194,9.13806452 12.4112903,9.32548387 12.3393548,9.64935484 C12.3,9.85709677 12.3448387,10.0674194 12.4616129,10.2267742 C12.5648387,10.3674194 12.7177419,10.456129 12.8916129,10.4767742 C13.0093548,10.4906452 13.0235484,10.4919355 13.1425806,10.5022581 C13.2267742,10.5093548 13.3651613,10.5216129 13.6377419,10.5464516 L14.8696774,13.9206452 L13.3158065,18.533871 L10.6293548,10.533871 C10.883871,10.513871 11.1683871,10.49 11.2445161,10.4783871 C11.5690323,10.4293548 11.8712903,10.1290323 11.8158065,9.7116129 C11.7658065,9.33258065 11.486129,9.11935484 11.0664516,9.14 L10.9967742,9.14516129 C10.1870968,9.19935484 9.45774194,9.22677419 8.82806452,9.22677419 C8.39580645,9.22677419 7.67483871,9.21258065 6.69419355,9.14451613 L6.63419355,9.14032258 C6.61064516,9.13903226 6.58612903,9.13806452 6.56032258,9.13806452 C6.2016129,9.13806452 5.94612903,9.32580645 5.87483871,9.64903226 C5.83516129,9.85677419 5.87967742,10.0674194 5.99645161,10.2267742 C6.1,10.3680645 6.25258065,10.4567742 6.42645161,10.4770968 Z" id="Shape" sketch:type="MSShapeGroup"></path>
        </g>
    </g>
</svg>